<?xml version="1.0" encoding="UTF-8"?>
<svg id="Layer_1" data-name="Layer 1" xmlns="http://www.w3.org/2000/svg" xmlns:xlink="http://www.w3.org/1999/xlink" viewBox="0 0 534.36 436.84">
  <defs>
    <style>
      .cls-1 {
        font-family: AeroRegularSWFTE, Aero;
        font-size: 118.79px;
      }

      .cls-1, .cls-2 {
        fill: gray;
      }

      .cls-3 {
        letter-spacing: .05em;
      }

      .cls-4 {
        letter-spacing: .05em;
      }

      .cls-5 {
        letter-spacing: -.02em;
      }

      .cls-6 {
        letter-spacing: 0em;
      }

      .cls-7 {
        fill: url(#linear-gradient);
      }

      .cls-7, .cls-8 {
        stroke-width: 0px;
      }

      .cls-9 {
        letter-spacing: -.02em;
      }

      .cls-10 {
        fill: #808e41;
        stroke: #808e41;
        stroke-miterlimit: 10;
        stroke-width: 2px;
      }

      .cls-11 {
        letter-spacing: 0em;
      }

      .cls-2 {
        font-family: Baloo2-Regular, 'Baloo 2';
        font-size: 33.26px;
      }

      .cls-12 {
        letter-spacing: -.02em;
      }

      .cls-13 {
        letter-spacing: 0em;
      }

      .cls-14 {
        letter-spacing: 0em;
      }

      .cls-15 {
        letter-spacing: 0em;
      }

      .cls-16 {
        letter-spacing: -.02em;
      }
    </style>
    <linearGradient id="linear-gradient" x1="337.7" y1="291.24" x2="395.37" y2="233.58" gradientUnits="userSpaceOnUse">
      <stop offset="0" stop-color="#f29175"/>
      <stop offset=".14" stop-color="#f29577"/>
      <stop offset="1" stop-color="#f6af86"/>
    </linearGradient>
  </defs>
  <g>
    <g>
      <path class="cls-8" d="m315,123.01c-2.6,12.91-12.57,13.56-14.55,13.56-5.63,0-8.99-3.25-8.99-8.69,0-1.24.18-2.93.5-4.62l6.17-30.73.03-.12h-7.29l-6.29,31.51-.08.45c-.27,1.42-.52,2.77-.52,4.52,0,8.46,5.56,14.15,13.85,14.15,6.06,0,10.93-1.99,14.48-5.92l-.94,5.19-.02.12h7.18l9.92-49.91.02-.12h-7.39l-6.07,30.6Z"/>
      <path class="cls-8" d="m364.66,91.81c-5.63,0-10.62,2.3-13.76,6.34l1.13-5.62.02-.12h-7.18l-9.93,49.9-.02.12h7.29l6.08-30.61c1.55-7.86,7.58-13.55,14.35-13.55,2.91,0,5.19,1.14,6.99,3.49l.07.09,5.92-5.3-.06-.07c-2.73-3.16-6.3-4.68-10.89-4.68Z"/>
      <polygon class="cls-8" points="244.2 98.76 244.18 98.88 269.04 98.88 235.94 136.3 235.92 136.32 234.68 142.44 269.95 142.44 271.21 135.97 244.84 135.97 278.04 98.54 278.05 98.52 279.3 92.41 245.43 92.41 244.2 98.76"/>
      <polygon class="cls-8" points="376.54 142.32 376.52 142.44 383.8 142.44 393.74 92.41 386.58 92.41 376.54 142.32"/>
      <path class="cls-8" d="m475.33,91.81c-5.99,0-10.67,1.83-14.27,5.62l5.65-27.86h-7.29l-14.64,72.87h7.29l6.08-30.61c2.61-12.9,12.66-13.55,14.65-13.55,5.57,0,8.9,3.25,8.9,8.69,0,1.23-.19,2.92-.51,4.63l-6.18,30.85h7.28l6.39-31.52c.31-1.67.51-3.09.51-4.97,0-8.46-5.59-14.15-13.87-14.15Z"/>
      <path class="cls-8" d="m427.02,91.81c-13.22,0-22.5,9.31-25.46,25.54-.53,2.72-.72,5.76-.72,7.7,0,11.09,6.74,17.99,17.58,17.99,6.31,0,12.07-2.42,16.65-7l.07-.07-4.2-5.13-.07-.09-.08.09c-3.87,4.07-7.33,5.73-11.96,5.73-5.17,0-10.7-3.08-10.7-11.72,0-2.71.32-4.94.8-7.46.78-4.24,2.54-10.17,6.44-14.29,3.1-3.2,6.78-4.82,10.95-4.82s7.06,1.55,9.71,5.51l.06.1,5.35-4.52.07-.06-.06-.08c-3.65-5.14-8.1-7.42-14.43-7.42Z"/>
      <polygon class="cls-8" points="389.28 78.69 396.58 78.69 398.4 69.57 391.12 69.57 389.28 78.69"/>
      <polygon class="cls-8" points="318.43 78.69 325.74 78.69 327.54 69.57 320.28 69.57 318.43 78.69"/>
      <polygon class="cls-8" points="299 78.69 306.3 78.69 308.12 69.57 300.85 69.57 299 78.69"/>
    </g>
    <polygon class="cls-8" points="201.65 97.81 185.26 97.81 191.02 69.57 51.66 69.57 37.02 142.45 92.59 142.45 96.23 124.23 63.42 124.23 65.41 114.21 98.2 114.21 101.51 97.81 68.7 97.81 70.69 87.79 122.69 87.79 111.71 142.45 134.48 142.45 145.46 87.79 164.58 87.79 153.6 142.45 176.38 142.45 182 114.21 198.39 114.21 192.77 142.45 215.55 142.45 230.19 69.57 207.41 69.57 201.65 97.81"/>
  </g>
  <rect class="cls-8" x="260.05" y="-49.74" width="1.23" height="450" transform="translate(435.93 -85.41) rotate(90)"/>
  <g>
    <text class="cls-1" transform="translate(51.56 305.01)"><tspan class="cls-3" x="0" y="0">P</tspan><tspan class="cls-4" x="93.93" y="0" xml:space="preserve">EA  </tspan></text>
    <g>
      <path class="cls-7" d="m380.1,218.31v15.04h-11.86c-1.91,0-3.35.41-4.31,1.22s-1.64,2.06-2.03,3.74c-.21.92-.34,3.43-.37,7.54-.03,4.11-.46,7.35-1.29,9.7-.62,1.8-1.49,3.26-2.63,4.36-.86.83-2.27,1.67-4.24,2.52,2.05.95,3.57,1.93,4.56,2.96.99,1.02,1.84,2.58,2.55,4.68s1.05,5.44,1.05,10.02c0,4.13.21,6.82.64,8.07s1.14,2.14,2.13,2.66,12.8.78,15.8.78v14.86h-15.59c-5.96,0-10.2-.65-12.7-1.95-2.51-1.3-4.3-3.2-5.37-5.69-1.07-2.49-1.61-6.23-1.61-11.21,0-1.1.03-2.2.09-3.3.03-.67.05-1.36.05-2.06,0-3.55-.32-6.07-.96-7.57s-1.57-2.58-2.77-3.26-2.96-1.04-5.25-1.1v-15.73c2.35,0,4.12-.37,5.3-1.1,1.18-.73,2.07-1.86,2.68-3.37.61-1.51.92-4.07.92-7.68v-1.56c-.03-.7-.05-1.41-.05-2.11,0-5.41.45-9.33,1.35-11.74.9-2.42,2.15-4.27,3.74-5.55,1.19-.98,2.81-1.71,4.86-2.2,2.72-.64,5.82-.96,9.31-.96h16Z"/>
      <path class="cls-10" d="m356.78,205.86s2.65-7.94,7.94-10.59c3.97-2.65,11.92,2.65,7.94,6.62s-15.89,3.97-15.89,3.97h0Z"/>
    </g>
    <text class="cls-2" transform="translate(57.02 349.28)"><tspan class="cls-5" x="0" y="0">P</tspan><tspan class="cls-15" x="18.19" y="0">r</tspan><tspan x="30.57" y="0">og</tspan><tspan class="cls-14" x="66.82" y="0">r</tspan><tspan x="79.36" y="0">ammin</tspan><tspan class="cls-13" x="176.55" y="0">g</tspan><tspan x="194.75" y="0">, </tspan><tspan class="cls-9" x="206.22" y="0">E</tspan><tspan class="cls-11" x="223.29" y="0">du</tspan><tspan class="cls-6" x="259.77" y="0">c</tspan><tspan x="275.81" y="0">ation, and </tspan><tspan class="cls-12" x="0" y="38.01">C</tspan><tspan x="18.73" y="38.01">ompu</tspan><tspan class="cls-16" x="100.72" y="38.01">t</tspan><tspan x="112.59" y="38.01">e</tspan><tspan class="cls-16" x="129.85" y="38.01">r</tspan><tspan x="142.06" y="38.01">-Human In</tspan><tspan class="cls-16" x="290.74" y="38.01">t</tspan><tspan x="302.61" y="38.01">e</tspan><tspan class="cls-14" x="319.88" y="38.01">r</tspan><tspan x="332.42" y="38.01">action</tspan></text>
    <text class="cls-1" transform="translate(392.74 305.01)"><tspan x="0" y="0">H</tspan></text>
  </g>
</svg>