<?xml version="1.0" encoding="UTF-8"?>
<svg id="Layer_1" data-name="Layer 1" xmlns="http://www.w3.org/2000/svg" xmlns:xlink="http://www.w3.org/1999/xlink" viewBox="0 0 257.2 265.37">
  <defs>
    <style>
      .cls-1 {
        fill: url(#linear-gradient);
      }

      .cls-1, .cls-2, .cls-3, .cls-4, .cls-5, .cls-6, .cls-7, .cls-8 {
        stroke-width: 0px;
      }

      .cls-2, .cls-3, .cls-4 {
        fill-rule: evenodd;
      }

      .cls-2, .cls-6 {
        fill: gray;
      }

      .cls-3 {
        fill: #808e41;
      }

      .cls-4, .cls-8 {
        fill: #d0d0d0;
      }

      .cls-5 {
        fill: url(#linear-gradient-2);
      }

      .cls-7 {
        fill: #231f20;
      }
    </style>
    <linearGradient id="linear-gradient" x1="26.93" y1="189.46" x2="114.41" y2="101.98" gradientUnits="userSpaceOnUse">
      <stop offset="0" stop-color="#f29175"/>
      <stop offset=".14" stop-color="#f29577"/>
      <stop offset="1" stop-color="#f6af86"/>
    </linearGradient>
    <linearGradient id="linear-gradient-2" x1="22.24" y1="184.76" x2="109.72" y2="97.28" xlink:href="#linear-gradient"/>
  </defs>
  <g>
    <polygon class="cls-2" points="106.51 210.68 157.56 210.68 162.35 224.23 101.3 224.23 106.51 210.68"/>
    <rect class="cls-6" x="140.81" y="112.83" width="34.3" height="33.18" rx="4.7" ry="4.7"/>
    <rect class="cls-6" x="102.04" y="85.57" width="28.18" height="27.26" rx="3.86" ry="3.86"/>
    <path class="cls-3" d="m116.79,26.75c-14.12-4.01-35.6.38-44.61,5.86,1.93,1.56,6.49,3.07,9.49,5.25,9.27,6.76,11.48,16.82,18.88,25.48,7.83,9.16,24.39,20.93,41.76,21.87-.48-12.38-11.09-30.28-21.53-38.84-2.29-1.87-10.9-7.94-13.72-7.65,18.5,2.26,34.71,21.32,41.78,37.76,1.09,2.53,1.98,5.55,3.3,7.61,1.64-22.31-13.49-51.12-35.33-57.33Z"/>
    <path class="cls-3" d="m156.96,83.75c6.68-4.03,11.61-13.84,35.97-18.7,2.95-.59,4.87-.58,6.33-2.75,3.39-5.04.19-19.03-24.83-.75-5.53,4.04-13.9,14.02-17.47,22.2Z"/>
    <path class="cls-1" d="m91.25,78.82v22.82h-18c-2.9,0-5.09.61-6.54,1.84-1.46,1.23-2.48,3.12-3.08,5.67-.32,1.39-.51,5.21-.56,11.45-.05,6.24-.7,11.14-1.95,14.72-.93,2.74-2.26,4.94-3.99,6.61-1.3,1.25-3.45,2.53-6.44,3.83,3.11,1.44,5.42,2.93,6.92,4.49,1.51,1.55,2.79,3.92,3.86,7.1,1.07,3.18,1.6,8.25,1.6,15.2,0,6.26.32,10.34.97,12.25s1.73,3.25,3.24,4.04c1.51.79,19.42,1.18,23.96,1.18v22.54h-23.65c-9.05,0-15.47-.99-19.27-2.96-3.8-1.97-6.52-4.85-8.14-8.63-1.62-3.78-2.44-9.45-2.44-17.01,0-1.67.05-3.34.14-5.01.05-1.02.07-2.06.07-3.13,0-5.38-.49-9.21-1.46-11.48-.97-2.27-2.38-3.92-4.21-4.94s-4.49-1.58-7.97-1.67v-23.87c3.57,0,6.25-.56,8.04-1.67s3.14-2.82,4.07-5.11c.93-2.3,1.39-6.18,1.39-11.65v-2.37c-.05-1.07-.07-2.13-.07-3.2,0-8.21.68-14.15,2.05-17.81,1.37-3.66,3.26-6.47,5.67-8.42,1.81-1.48,4.27-2.6,7.38-3.34,4.13-.97,8.84-1.46,14.12-1.46h24.28Z"/>
    <path class="cls-6" d="m197.07,79.79c5.29,0,10,.49,14.12,1.46,3.11.74,5.57,1.86,7.38,3.34,2.41,1.95,4.3,4.75,5.67,8.42,1.37,3.66,2.05,9.6,2.05,17.81,0,1.07-.02,2.13-.07,3.2v2.37c0,5.47.46,9.36,1.39,11.65.93,2.3,2.28,4,4.07,5.11,1.79,1.11,4.46,1.67,8.04,1.67v23.87c-3.48.09-6.13.65-7.97,1.67-1.83,1.02-3.24,2.67-4.21,4.94s-1.46,6.1-1.46,11.48c0,1.07.02,2.11.07,3.13.09,1.67.14,3.34.14,5.01,0,7.56-.81,13.23-2.44,17.01s-4.34,6.66-8.14,8.63-10.23,2.96-19.27,2.96h-23.65v-22.54c4.55,0,22.46-.39,23.96-1.18s2.59-2.13,3.24-4.04c.65-1.9.97-5.98.97-12.25,0-6.96.53-12.03,1.6-15.2,1.07-3.18,2.35-5.54,3.86-7.1,1.51-1.55,3.82-3.05,6.92-4.49-2.99-1.3-5.13-2.57-6.44-3.83-1.73-1.67-3.06-3.87-3.99-6.61-1.26-3.57-1.91-8.48-1.95-14.72-.05-6.24-.24-10.05-.56-11.45-.6-2.55-1.62-4.44-3.08-5.67-1.46-1.23-3.64-1.84-6.54-1.84h-18v-22.82h24.28Z"/>
  </g>
  <rect class="cls-7" x="-.03" y="-.45" width="257.11" height="265.91"/>
  <g>
    <polygon class="cls-4" points="101.82 205.98 152.86 205.98 157.66 219.53 96.61 219.53 101.82 205.98"/>
    <rect class="cls-8" x="136.12" y="108.13" width="34.3" height="33.18" rx="4.7" ry="4.7"/>
    <rect class="cls-8" x="97.35" y="80.87" width="28.18" height="27.26" rx="3.86" ry="3.86"/>
    <path class="cls-3" d="m112.09,22.06c-14.12-4.01-35.6.38-44.61,5.86,1.93,1.56,6.49,3.07,9.49,5.25,9.27,6.76,11.48,16.82,18.88,25.48,7.83,9.16,24.39,20.93,41.76,21.87-.48-12.38-11.09-30.28-21.53-38.84-2.29-1.87-10.9-7.94-13.72-7.65,18.5,2.26,34.71,21.32,41.78,37.76,1.09,2.53,1.98,5.55,3.3,7.61,1.64-22.31-13.49-51.12-35.33-57.33Z"/>
    <path class="cls-3" d="m152.26,79.05c6.68-4.03,11.61-13.84,35.97-18.7,2.95-.59,4.87-.58,6.33-2.75,3.39-5.04.19-19.03-24.83-.75-5.53,4.04-13.9,14.02-17.47,22.2Z"/>
    <path class="cls-5" d="m86.56,74.12v22.82h-18c-2.9,0-5.09.61-6.54,1.84s-2.48,3.12-3.08,5.67c-.32,1.39-.51,5.21-.56,11.45-.05,6.24-.7,11.14-1.95,14.72-.93,2.74-2.26,4.94-3.99,6.61-1.3,1.25-3.45,2.53-6.44,3.83,3.11,1.44,5.42,2.93,6.92,4.49,1.51,1.55,2.79,3.92,3.86,7.1,1.07,3.18,1.6,8.25,1.6,15.2,0,6.26.32,10.34.97,12.25s1.73,3.25,3.24,4.04c1.51.79,19.42,1.18,23.96,1.18v22.54h-23.65c-9.05,0-15.47-.99-19.27-2.96-3.8-1.97-6.52-4.85-8.14-8.63-1.62-3.78-2.44-9.45-2.44-17.01,0-1.67.05-3.34.14-5.01.05-1.02.07-2.06.07-3.13,0-5.38-.49-9.21-1.46-11.48-.97-2.27-2.38-3.92-4.21-4.94-1.83-1.02-4.49-1.58-7.97-1.67v-23.87c3.57,0,6.25-.56,8.04-1.67,1.79-1.11,3.14-2.82,4.07-5.11.93-2.3,1.39-6.18,1.39-11.65v-2.37c-.05-1.07-.07-2.13-.07-3.2,0-8.21.68-14.15,2.05-17.81,1.37-3.66,3.26-6.47,5.67-8.42,1.81-1.48,4.27-2.6,7.38-3.34,4.13-.97,8.84-1.46,14.12-1.46h24.28Z"/>
    <path class="cls-8" d="m192.37,75.09c5.29,0,10,.49,14.12,1.46,3.11.74,5.57,1.86,7.38,3.34,2.41,1.95,4.3,4.75,5.67,8.42,1.37,3.66,2.05,9.6,2.05,17.81,0,1.07-.02,2.13-.07,3.2v2.37c0,5.47.46,9.36,1.39,11.65.93,2.3,2.28,4,4.07,5.11,1.79,1.11,4.46,1.67,8.04,1.67v23.87c-3.48.09-6.13.65-7.97,1.67s-3.24,2.67-4.21,4.94-1.46,6.1-1.46,11.48c0,1.07.02,2.11.07,3.13.09,1.67.14,3.34.14,5.01,0,7.56-.81,13.23-2.44,17.01-1.62,3.78-4.34,6.66-8.14,8.63-3.8,1.97-10.23,2.96-19.27,2.96h-23.65v-22.54c4.55,0,22.46-.39,23.96-1.18,1.51-.79,2.59-2.13,3.24-4.04s.97-5.98.97-12.25c0-6.96.53-12.03,1.6-15.2,1.07-3.18,2.35-5.54,3.86-7.1,1.51-1.55,3.82-3.05,6.92-4.49-2.99-1.3-5.13-2.57-6.44-3.83-1.73-1.67-3.06-3.87-3.99-6.61-1.26-3.57-1.91-8.48-1.95-14.72-.05-6.24-.24-10.05-.56-11.45-.6-2.55-1.62-4.44-3.08-5.67-1.46-1.23-3.64-1.84-6.54-1.84h-18v-22.82h24.28Z"/>
  </g>
</svg>