<?xml version="1.0" encoding="UTF-8"?>
<svg id="Layer_1" data-name="Layer 1" xmlns="http://www.w3.org/2000/svg" xmlns:xlink="http://www.w3.org/1999/xlink" viewBox="0 0 674.62 612.62">
  <defs>
    <style>
      .cls-1 {
        letter-spacing: .05em;
      }

      .cls-2 {
        letter-spacing: .05em;
      }

      .cls-3 {
        letter-spacing: -.02em;
      }

      .cls-4 {
        letter-spacing: 0em;
      }

      .cls-5 {
        fill: url(#linear-gradient);
      }

      .cls-5, .cls-6, .cls-7, .cls-8, .cls-9 {
        stroke-width: 0px;
      }

      .cls-10 {
        stroke: #808e41;
        stroke-miterlimit: 10;
        stroke-width: 2px;
      }

      .cls-10, .cls-7 {
        fill: #808e41;
      }

      .cls-11 {
        letter-spacing: -.02em;
      }

      .cls-12 {
        letter-spacing: -.02em;
      }

      .cls-13 {
        font-family: Baloo2-Regular, 'Baloo 2';
        font-size: 42px;
      }

      .cls-13, .cls-6, .cls-14, .cls-9 {
        fill: gray;
      }

      .cls-15 {
        letter-spacing: 0em;
      }

      .cls-6, .cls-7 {
        fill-rule: evenodd;
      }

      .cls-8 {
        fill: url(#linear-gradient-2);
      }

      .cls-16 {
        letter-spacing: 0em;
      }

      .cls-17 {
        letter-spacing: -.01em;
      }

      .cls-14 {
        font-family: AeroRegularSWFTE, Aero;
        font-size: 150px;
      }

      .cls-18 {
        letter-spacing: 0em;
      }

      .cls-19 {
        letter-spacing: 0em;
      }
    </style>
    <linearGradient id="linear-gradient" x1="428.92" y1="441.06" x2="501.74" y2="368.24" gradientUnits="userSpaceOnUse">
      <stop offset="0" stop-color="#f29175"/>
      <stop offset=".14" stop-color="#f29577"/>
      <stop offset="1" stop-color="#f6af86"/>
    </linearGradient>
    <linearGradient id="linear-gradient-2" x1="199.29" y1="255.5" x2="309.76" y2="145.03" xlink:href="#linear-gradient"/>
  </defs>
  <text class="cls-14" transform="translate(67.61 458.44)"><tspan class="cls-1" x="0" y="0">P</tspan><tspan class="cls-2" x="118.6" y="0" xml:space="preserve">EA  </tspan></text>
  <g>
    <path class="cls-5" d="m482.46,348.97v19h-14.98c-2.42,0-4.23.51-5.44,1.53s-2.07,2.6-2.56,4.72c-.27,1.16-.42,4.33-.47,9.53-.04,5.19-.58,9.28-1.63,12.25-.78,2.28-1.88,4.11-3.32,5.5-1.09,1.04-2.87,2.1-5.36,3.19,2.59,1.2,4.51,2.44,5.76,3.74,1.25,1.29,2.33,3.26,3.21,5.91.89,2.64,1.33,6.86,1.33,12.65,0,5.21.27,8.61.81,10.19.54,1.58,1.44,2.7,2.69,3.36,1.25.66,16.16.98,19.95.98v18.76h-19.69c-7.53,0-12.88-.82-16.04-2.46-3.17-1.64-5.42-4.03-6.78-7.18s-2.03-7.87-2.03-14.16c0-1.39.04-2.78.12-4.17.04-.85.06-1.72.06-2.61,0-4.48-.41-7.66-1.22-9.56-.81-1.89-1.98-3.26-3.5-4.11s-3.74-1.31-6.63-1.39v-19.86c2.97,0,5.2-.46,6.69-1.39s2.62-2.35,3.39-4.26c.77-1.91,1.16-5.14,1.16-9.7v-1.97c-.04-.89-.06-1.78-.06-2.66,0-6.83.57-11.78,1.71-14.83s2.71-5.39,4.72-7.01c1.51-1.24,3.55-2.16,6.14-2.78,3.44-.81,7.36-1.22,11.76-1.22h20.21Z"/>
    <path class="cls-10" d="m453.01,333.24s3.34-10.03,10.03-13.38c5.02-3.34,15.05,3.34,10.03,8.36-5.02,5.02-20.06,5.02-20.06,5.02h0Z"/>
  </g>
  <text class="cls-13" transform="translate(74.5 514.34)"><tspan class="cls-3" x="0" y="0">P</tspan><tspan class="cls-18" x="22.97" y="0">r</tspan><tspan x="38.6" y="0">og</tspan><tspan class="cls-19" x="84.38" y="0">r</tspan><tspan x="100.21" y="0">ammin</tspan><tspan class="cls-15" x="222.93" y="0">g</tspan><tspan x="245.91" y="0">, </tspan><tspan class="cls-12" x="260.4" y="0">E</tspan><tspan x="281.94" y="0">du</tspan><tspan class="cls-4" x="328.02" y="0">c</tspan><tspan x="348.26" y="0">ation, and </tspan><tspan class="cls-11" x="0" y="48">C</tspan><tspan x="23.65" y="48">ompu</tspan><tspan class="cls-17" x="127.17" y="48">t</tspan><tspan x="142.17" y="48">e</tspan><tspan class="cls-17" x="163.97" y="48">r</tspan><tspan x="179.38" y="48">-Human In</tspan><tspan class="cls-17" x="367.12" y="48">t</tspan><tspan x="382.11" y="48">e</tspan><tspan class="cls-16" x="403.91" y="48">r</tspan><tspan x="419.74" y="48">action</tspan></text>
  <text class="cls-14" transform="translate(498.41 458.44)"><tspan x="0" y="0">H</tspan></text>
  <g>
    <polygon class="cls-6" points="299.78 282.29 364.23 282.29 370.29 299.4 293.21 299.4 299.78 282.29"/>
    <rect class="cls-9" x="343.09" y="158.73" width="43.31" height="41.9" rx="5.93" ry="5.93"/>
    <rect class="cls-9" x="294.14" y="124.32" width="35.58" height="34.42" rx="4.87" ry="4.87"/>
    <path class="cls-7" d="m312.76,50.05c-17.83-5.07-44.95.48-56.33,7.4,2.44,1.97,8.2,3.87,11.98,6.63,11.7,8.53,14.49,21.23,23.84,32.17,9.89,11.57,30.79,26.43,52.73,27.62-.61-15.63-14.01-38.24-27.19-49.05-2.89-2.37-13.76-10.03-17.33-9.67,23.36,2.86,43.83,26.92,52.75,47.67,1.37,3.19,2.5,7.01,4.17,9.61,2.07-28.18-17.04-64.55-44.62-72.39Z"/>
    <path class="cls-7" d="m363.48,122.02c8.43-5.09,14.66-17.47,45.42-23.61,3.72-.74,6.15-.73,7.99-3.47,4.27-6.36.23-24.03-31.36-.95-6.99,5.1-17.56,17.71-22.05,28.03Z"/>
    <path class="cls-8" d="m280.51,115.79v28.82h-22.73c-3.67,0-6.42.78-8.26,2.33-1.84,1.55-3.13,3.94-3.89,7.16-.41,1.76-.64,6.57-.71,14.45-.06,7.88-.88,14.07-2.47,18.58-1.18,3.46-2.86,6.24-5.04,8.35-1.65,1.58-4.36,3.19-8.13,4.83,3.92,1.82,6.84,3.7,8.74,5.67,1.9,1.96,3.53,4.95,4.88,8.96,1.35,4.01,2.02,10.41,2.02,19.2,0,7.91.41,13.06,1.23,15.46s2.18,4.1,4.09,5.1c1.9,1,24.52,1.49,30.26,1.49v28.47h-29.86c-11.42,0-19.53-1.24-24.34-3.73-4.8-2.49-8.23-6.12-10.28-10.89-2.05-4.77-3.08-11.93-3.08-21.48,0-2.11.06-4.22.18-6.33.06-1.29.09-2.61.09-3.95,0-6.79-.62-11.63-1.85-14.5s-3-4.95-5.32-6.24c-2.31-1.29-5.67-1.99-10.06-2.11v-30.14c4.51,0,7.89-.7,10.15-2.11,2.26-1.41,3.97-3.56,5.14-6.46,1.17-2.9,1.76-7.8,1.76-14.72v-2.99c-.06-1.35-.09-2.69-.09-4.04,0-10.37.86-17.86,2.59-22.49,1.73-4.63,4.11-8.17,7.16-10.63,2.28-1.87,5.39-3.28,9.31-4.22,5.21-1.23,11.16-1.85,17.84-1.85h30.66Z"/>
    <path class="cls-9" d="m414.13,117.02c6.68,0,12.62.62,17.84,1.85,3.92.94,7.03,2.34,9.31,4.22,3.05,2.46,5.43,6,7.16,10.63,1.73,4.63,2.59,12.12,2.59,22.49,0,1.35-.03,2.69-.09,4.04v2.99c0,6.91.59,11.82,1.76,14.72,1.17,2.9,2.88,5.05,5.14,6.46,2.26,1.41,5.64,2.11,10.15,2.11v30.14c-4.39.12-7.75.82-10.06,2.11s-4.09,3.37-5.32,6.24c-1.23,2.87-1.85,7.7-1.85,14.5,0,1.35.03,2.67.09,3.95.12,2.11.18,4.22.18,6.33,0,9.55-1.03,16.71-3.08,21.48-2.05,4.77-5.48,8.41-10.28,10.89-4.8,2.49-12.92,3.73-24.34,3.73h-29.86v-28.47c5.74,0,28.36-.5,30.26-1.49,1.9-1,3.27-2.69,4.09-5.1.82-2.4,1.23-7.56,1.23-15.46,0-8.79.67-15.19,2.02-19.2s2.97-7,4.88-8.96c1.9-1.96,4.82-3.85,8.74-5.67-3.77-1.64-6.48-3.25-8.13-4.83-2.18-2.11-3.86-4.89-5.04-8.35-1.59-4.51-2.41-10.7-2.47-18.58-.07-7.88-.3-12.7-.71-14.45-.75-3.22-2.05-5.61-3.89-7.16-1.84-1.55-4.59-2.33-8.26-2.33h-22.73v-28.82h30.66Z"/>
  </g>
</svg>