<?xml version="1.0" encoding="UTF-8"?>
<svg id="Layer_1" data-name="Layer 1" xmlns="http://www.w3.org/2000/svg" xmlns:xlink="http://www.w3.org/1999/xlink" viewBox="0 0 150 150">
  <defs>
    <style>
      .cls-1 {
        fill: url(#linear-gradient);
        stroke-width: 0px;
      }

      .cls-2 {
        fill: #808e41;
        stroke: #808e41;
        stroke-miterlimit: 10;
        stroke-width: 2px;
      }
    </style>
    <linearGradient id="linear-gradient" x1="53" y1="113.23" x2="110.66" y2="55.56" gradientUnits="userSpaceOnUse">
      <stop offset="0" stop-color="#f29175"/>
      <stop offset=".14" stop-color="#f29577"/>
      <stop offset="1" stop-color="#f6af86"/>
    </linearGradient>
  </defs>
  <path class="cls-1" d="m95.4,40.3v15.04h-11.86c-1.91,0-3.35.41-4.31,1.22s-1.64,2.06-2.03,3.74c-.21.92-.34,3.43-.37,7.54-.03,4.11-.46,7.35-1.29,9.7-.62,1.8-1.49,3.26-2.63,4.36-.86.83-2.27,1.67-4.24,2.52,2.05.95,3.57,1.93,4.56,2.96.99,1.02,1.84,2.58,2.55,4.68.7,2.09,1.05,5.44,1.05,10.02,0,4.13.21,6.82.64,8.07s1.14,2.14,2.13,2.66,12.8.78,15.8.78v14.86h-15.59c-5.96,0-10.2-.65-12.7-1.95s-4.3-3.2-5.37-5.69-1.61-6.23-1.61-11.21c0-1.1.03-2.2.09-3.3.03-.67.05-1.36.05-2.06,0-3.55-.32-6.07-.96-7.57s-1.57-2.58-2.77-3.26-2.96-1.04-5.25-1.1v-15.73c2.35,0,4.12-.37,5.3-1.1,1.18-.73,2.07-1.86,2.68-3.37.61-1.51.92-4.07.92-7.68v-1.56c-.03-.7-.05-1.41-.05-2.11,0-5.41.45-9.33,1.35-11.74.9-2.42,2.15-4.27,3.74-5.55,1.19-.98,2.81-1.71,4.86-2.2,2.72-.64,5.82-.96,9.31-.96h16Z"/>
  <path class="cls-2" d="m72.08,27.84s2.65-7.94,7.94-10.59c3.97-2.65,11.92,2.65,7.94,6.62-3.97,3.97-15.89,3.97-15.89,3.97h0Z"/>
</svg>