<?xml version="1.0" encoding="UTF-8"?>
<svg id="Layer_1" data-name="Layer 1" xmlns="http://www.w3.org/2000/svg" xmlns:xlink="http://www.w3.org/1999/xlink" viewBox="0 0 772.14 262.48">
  <defs>
    <style>
      .cls-1 {
        font-family: AeroRegularSWFTE, Aero;
        font-size: 118.79px;
      }

      .cls-1, .cls-2, .cls-3, .cls-4 {
        fill: #d0d0d0;
      }

      .cls-5 {
        letter-spacing: .05em;
      }

      .cls-6 {
        letter-spacing: .05em;
      }

      .cls-7 {
        letter-spacing: -.02em;
      }

      .cls-8 {
        letter-spacing: 0em;
      }

      .cls-9 {
        fill: url(#linear-gradient);
      }

      .cls-9, .cls-10, .cls-3, .cls-11, .cls-12, .cls-4 {
        stroke-width: 0px;
      }

      .cls-13 {
        letter-spacing: -.02em;
      }

      .cls-14 {
        stroke: #808e41;
        stroke-miterlimit: 10;
        stroke-width: 2px;
      }

      .cls-14, .cls-10 {
        fill: #808e41;
      }

      .cls-15 {
        letter-spacing: 0em;
      }

      .cls-2 {
        font-family: Baloo2-Regular, 'Baloo 2';
        font-size: 33.26px;
      }

      .cls-16 {
        letter-spacing: -.02em;
      }

      .cls-17 {
        letter-spacing: 0em;
      }

      .cls-10, .cls-3 {
        fill-rule: evenodd;
      }

      .cls-11 {
        fill: url(#linear-gradient-2);
      }

      .cls-18 {
        letter-spacing: 0em;
      }

      .cls-19 {
        letter-spacing: 0em;
      }

      .cls-20 {
        letter-spacing: -.02em;
      }

      .cls-12 {
        fill: #231f20;
      }
    </style>
    <linearGradient id="linear-gradient" x1="587.9" y1="131.82" x2="645.56" y2="74.15" gradientUnits="userSpaceOnUse">
      <stop offset="0" stop-color="#f29175"/>
      <stop offset=".14" stop-color="#f29577"/>
      <stop offset="1" stop-color="#f6af86"/>
    </linearGradient>
    <linearGradient id="linear-gradient-2" x1="41.23" y1="187.99" x2="128.71" y2="100.51" xlink:href="#linear-gradient"/>
  </defs>
  <rect class="cls-12" x="-1.12" y="-1.49" width="773.87" height="264.38"/>
  <g>
    <text class="cls-1" transform="translate(301.76 145.59)"><tspan class="cls-5" x="0" y="0">P</tspan><tspan class="cls-6" x="93.93" y="0" xml:space="preserve">EA  </tspan></text>
    <g>
      <path class="cls-9" d="m630.3,58.89v15.04h-11.86c-1.91,0-3.35.41-4.31,1.22s-1.64,2.06-2.03,3.74c-.21.92-.34,3.43-.37,7.54-.03,4.11-.46,7.35-1.29,9.7-.62,1.8-1.49,3.26-2.63,4.36-.86.83-2.27,1.67-4.24,2.52,2.05.95,3.57,1.93,4.56,2.96.99,1.02,1.84,2.58,2.55,4.68.7,2.09,1.05,5.44,1.05,10.02,0,4.13.21,6.82.64,8.07.43,1.25,1.14,2.14,2.13,2.66.99.52,12.8.78,15.8.78v14.86h-15.59c-5.96,0-10.2-.65-12.7-1.95s-4.3-3.2-5.37-5.69c-1.07-2.49-1.61-6.23-1.61-11.21,0-1.1.03-2.2.09-3.3.03-.67.05-1.36.05-2.06,0-3.55-.32-6.07-.96-7.57-.64-1.5-1.57-2.58-2.77-3.26-1.21-.67-2.96-1.04-5.25-1.1v-15.73c2.35,0,4.12-.37,5.3-1.1s2.07-1.86,2.68-3.37.92-4.07.92-7.68v-1.56c-.03-.7-.05-1.41-.05-2.11,0-5.41.45-9.33,1.35-11.74.9-2.42,2.15-4.27,3.74-5.55,1.19-.98,2.81-1.71,4.86-2.2,2.72-.64,5.82-.96,9.31-.96h16Z"/>
      <path class="cls-14" d="m606.98,46.43s2.65-7.94,7.94-10.59c3.97-2.65,11.92,2.65,7.94,6.62-3.97,3.97-15.89,3.97-15.89,3.97h0Z"/>
    </g>
    <text class="cls-2" transform="translate(307.21 189.86)"><tspan class="cls-7" x="0" y="0">P</tspan><tspan class="cls-19" x="18.19" y="0">r</tspan><tspan x="30.57" y="0">og</tspan><tspan class="cls-18" x="66.82" y="0">r</tspan><tspan x="79.36" y="0">ammin</tspan><tspan class="cls-17" x="176.55" y="0">g</tspan><tspan x="194.75" y="0">, </tspan><tspan class="cls-13" x="206.22" y="0">E</tspan><tspan class="cls-15" x="223.29" y="0">du</tspan><tspan class="cls-8" x="259.77" y="0">c</tspan><tspan x="275.81" y="0">ation, and </tspan><tspan class="cls-16" x="0" y="38.01">C</tspan><tspan x="18.73" y="38.01">ompu</tspan><tspan class="cls-20" x="100.72" y="38.01">t</tspan><tspan x="112.59" y="38.01">e</tspan><tspan class="cls-20" x="129.85" y="38.01">r</tspan><tspan x="142.06" y="38.01">-Human In</tspan><tspan class="cls-20" x="290.74" y="38.01">t</tspan><tspan x="302.61" y="38.01">e</tspan><tspan class="cls-18" x="319.88" y="38.01">r</tspan><tspan x="332.42" y="38.01">action</tspan></text>
    <text class="cls-1" transform="translate(642.93 145.59)"><tspan x="0" y="0">H</tspan></text>
  </g>
  <g>
    <polygon class="cls-3" points="120.81 209.21 171.85 209.21 176.65 222.75 115.6 222.75 120.81 209.21"/>
    <rect class="cls-4" x="155.11" y="111.36" width="34.3" height="33.18" rx="4.7" ry="4.7"/>
    <rect class="cls-4" x="116.34" y="84.1" width="28.18" height="27.26" rx="3.86" ry="3.86"/>
    <path class="cls-10" d="m131.09,25.28c-14.12-4.01-35.6.38-44.61,5.86,1.93,1.56,6.49,3.07,9.49,5.25,9.27,6.76,11.48,16.82,18.88,25.48,7.83,9.16,24.39,20.93,41.76,21.87-.48-12.38-11.09-30.28-21.53-38.84-2.29-1.87-10.9-7.94-13.72-7.65,18.5,2.26,34.71,21.32,41.78,37.76,1.09,2.53,1.98,5.55,3.3,7.61,1.64-22.31-13.49-51.12-35.33-57.33Z"/>
    <path class="cls-10" d="m171.26,82.28c6.68-4.03,11.61-13.84,35.97-18.7,2.95-.59,4.87-.58,6.33-2.75,3.39-5.04.19-19.03-24.83-.75-5.53,4.04-13.9,14.02-17.47,22.2Z"/>
    <path class="cls-11" d="m105.55,77.35v22.82h-18c-2.9,0-5.09.61-6.54,1.84-1.46,1.23-2.48,3.12-3.08,5.67-.32,1.39-.51,5.21-.56,11.45-.05,6.24-.7,11.14-1.95,14.72-.93,2.74-2.26,4.94-3.99,6.61-1.3,1.25-3.45,2.53-6.44,3.83,3.11,1.44,5.42,2.93,6.92,4.49,1.51,1.55,2.79,3.92,3.86,7.1,1.07,3.18,1.6,8.25,1.6,15.2,0,6.26.32,10.34.97,12.25.65,1.9,1.73,3.25,3.24,4.04s19.42,1.18,23.96,1.18v22.54h-23.65c-9.05,0-15.47-.99-19.27-2.96-3.8-1.97-6.52-4.85-8.14-8.63-1.62-3.78-2.44-9.45-2.44-17.01,0-1.67.05-3.34.14-5.01.05-1.02.07-2.06.07-3.13,0-5.38-.49-9.21-1.46-11.48-.97-2.27-2.38-3.92-4.21-4.94s-4.49-1.58-7.97-1.67v-23.87c3.57,0,6.25-.56,8.04-1.67,1.79-1.11,3.14-2.82,4.07-5.11.93-2.3,1.39-6.18,1.39-11.65v-2.37c-.05-1.07-.07-2.13-.07-3.2,0-8.21.68-14.15,2.05-17.81,1.37-3.66,3.26-6.47,5.67-8.42,1.81-1.48,4.27-2.6,7.38-3.34,4.13-.97,8.84-1.46,14.12-1.46h24.28Z"/>
    <path class="cls-4" d="m211.37,78.32c5.29,0,10,.49,14.12,1.46,3.11.74,5.57,1.86,7.38,3.34,2.41,1.95,4.3,4.75,5.67,8.42,1.37,3.66,2.05,9.6,2.05,17.81,0,1.07-.02,2.13-.07,3.2v2.37c0,5.47.46,9.36,1.39,11.65.93,2.3,2.28,4,4.07,5.11,1.79,1.11,4.46,1.67,8.04,1.67v23.87c-3.48.09-6.13.65-7.97,1.67-1.83,1.02-3.24,2.67-4.21,4.94-.97,2.27-1.46,6.1-1.46,11.48,0,1.07.02,2.11.07,3.13.09,1.67.14,3.34.14,5.01,0,7.56-.81,13.23-2.44,17.01-1.62,3.78-4.34,6.66-8.14,8.63-3.8,1.97-10.23,2.96-19.27,2.96h-23.65v-22.54c4.55,0,22.46-.39,23.96-1.18s2.59-2.13,3.24-4.04c.65-1.9.97-5.98.97-12.25,0-6.96.53-12.03,1.6-15.2,1.07-3.18,2.35-5.54,3.86-7.1,1.51-1.55,3.82-3.05,6.92-4.49-2.99-1.3-5.13-2.57-6.44-3.83-1.73-1.67-3.06-3.87-3.99-6.61-1.26-3.57-1.91-8.48-1.95-14.72-.05-6.24-.24-10.05-.56-11.45-.6-2.55-1.62-4.44-3.08-5.67-1.46-1.23-3.64-1.84-6.54-1.84h-18v-22.82h24.28Z"/>
  </g>
</svg>