<?xml version="1.0" encoding="UTF-8"?>
<svg id="Layer_1" data-name="Layer 1" xmlns="http://www.w3.org/2000/svg" xmlns:xlink="http://www.w3.org/1999/xlink" viewBox="0 0 979.2 189.42">
  <defs>
    <style>
      .cls-1 {
        fill: url(#linear-gradient);
      }

      .cls-1, .cls-2, .cls-3 {
        stroke-width: 0px;
      }

      .cls-4 {
        fill: #808e41;
        stroke: #808e41;
        stroke-miterlimit: 10;
        stroke-width: 2px;
      }

      .cls-3 {
        fill: gray;
      }
    </style>
    <linearGradient id="linear-gradient" x1="828.4" y1="118.54" x2="877.2" y2="69.73" gradientUnits="userSpaceOnUse">
      <stop offset="0" stop-color="#f29175"/>
      <stop offset=".14" stop-color="#f29577"/>
      <stop offset="1" stop-color="#f6af86"/>
    </linearGradient>
  </defs>
  <g>
    <g>
      <path class="cls-3" d="m608.88,130.18h-15.17V57.83h32.99c11.55,0,19.73,1.95,24.54,5.84,4.52,3.67,6.77,9.61,6.77,17.82,0,8.74-2.58,14.89-7.76,18.46-4.71,3.24-12.37,4.86-22.97,4.86h-18.41v25.38Zm17.62-59.4h-17.62v21.25h18.41c9.2,0,13.79-3.52,13.79-10.55,0-3.67-1.01-6.32-3.04-7.95-2.26-1.83-6.1-2.75-11.54-2.75Z"/>
      <path class="cls-3" d="m727.83,57.83v12.57h-24.99c-5.47,0-9.68,1.43-12.64,4.29-2.96,2.86-4.44,7.08-4.44,12.64h42.07v12.57h-42.07c0,6.41,1.39,11,4.17,13.75,2.68,2.65,6.99,3.98,12.91,3.98h24.99v12.57h-25.57c-11.32,0-19.85-3.06-25.58-9.18-5.5-5.89-8.25-14.43-8.25-25.62,0-11.94,2.41-20.96,7.22-27.05,5.53-7,14.53-10.5,27-10.5h25.18Z"/>
      <path class="cls-3" d="m752.59,130.18h-16.1l30.38-72.35h16.1l30.88,72.35h-16.89l-6.63-17.33h-31.51l-6.23,17.33Zm11.14-30.09h21.65l-10.95-27.69-10.7,27.69Z"/>
    </g>
    <g>
      <path class="cls-1" d="m864.28,56.81v12.73h-10.04c-1.62,0-2.84.34-3.65,1.03-.81.69-1.38,1.74-1.72,3.16-.18.78-.28,2.9-.31,6.39-.03,3.48-.39,6.22-1.09,8.21-.52,1.53-1.26,2.76-2.23,3.69-.73.7-1.92,1.41-3.59,2.13,1.73.8,3.02,1.64,3.86,2.5s1.56,2.19,2.15,3.96.89,4.6.89,8.48c0,3.49.18,5.77.54,6.83.36,1.06.96,1.81,1.8,2.25s10.83.66,13.37.66v12.58h-13.19c-5.05,0-8.63-.55-10.75-1.65-2.12-1.1-3.64-2.7-4.54-4.81-.91-2.11-1.36-5.27-1.36-9.49,0-.93.03-1.86.08-2.79.03-.57.04-1.15.04-1.75,0-3-.27-5.14-.82-6.4s-1.33-2.19-2.35-2.76-2.5-.88-4.44-.93v-13.31c1.99,0,3.49-.31,4.48-.93,1-.62,1.75-1.57,2.27-2.85.52-1.28.78-3.45.78-6.5v-1.32c-.03-.6-.04-1.19-.04-1.79,0-4.58.38-7.89,1.15-9.94.76-2.04,1.82-3.61,3.16-4.7,1.01-.83,2.38-1.45,4.11-1.86,2.3-.54,4.93-.82,7.88-.82h13.54Z"/>
      <path class="cls-4" d="m844.55,46.27s2.24-6.72,6.72-8.96c3.36-2.24,10.09,2.24,6.72,5.6-3.36,3.36-13.45,3.36-13.45,3.36h0Z"/>
    </g>
    <path class="cls-3" d="m882.44,130.18V57.83h15.17v29.3h27.88v-29.3h15.12v72.35h-15.12v-30.29h-27.88v30.29h-15.17Z"/>
  </g>
  <g>
    <g>
      <path class="cls-2" d="m322.95,111.11c-2.6,12.91-12.57,13.56-14.55,13.56-5.63,0-8.99-3.25-8.99-8.69,0-1.24.18-2.93.5-4.62l6.17-30.73.03-.12h-7.29l-6.29,31.51-.08.45c-.27,1.42-.52,2.77-.52,4.52,0,8.46,5.56,14.15,13.85,14.15,6.06,0,10.93-1.99,14.48-5.92l-.94,5.19-.02.12h7.18l9.92-49.91.02-.12h-7.39l-6.07,30.6Z"/>
      <path class="cls-2" d="m372.62,79.9c-5.63,0-10.62,2.3-13.76,6.34l1.13-5.62.02-.12h-7.18l-9.93,49.9-.02.12h7.29l6.08-30.61c1.55-7.86,7.58-13.55,14.35-13.55,2.91,0,5.19,1.14,6.99,3.49l.07.09,5.92-5.3-.06-.07c-2.73-3.16-6.3-4.68-10.89-4.68Z"/>
      <polygon class="cls-2" points="252.16 86.86 252.14 86.98 276.99 86.98 243.9 124.4 243.88 124.42 242.63 130.54 277.91 130.54 279.17 124.06 252.8 124.06 286 86.64 286.01 86.62 287.26 80.51 253.39 80.51 252.16 86.86"/>
      <polygon class="cls-2" points="384.5 130.41 384.48 130.54 391.76 130.54 401.7 80.51 394.54 80.51 384.5 130.41"/>
      <path class="cls-2" d="m483.29,79.91c-5.99,0-10.67,1.83-14.27,5.62l5.65-27.86h-7.29l-14.64,72.87h7.29l6.08-30.61c2.61-12.9,12.66-13.55,14.65-13.55,5.57,0,8.9,3.25,8.9,8.69,0,1.23-.19,2.92-.51,4.63l-6.18,30.85h7.28l6.39-31.52c.31-1.67.51-3.09.51-4.97,0-8.46-5.59-14.15-13.87-14.15Z"/>
      <path class="cls-2" d="m434.98,79.9c-13.22,0-22.5,9.31-25.46,25.54-.53,2.72-.72,5.76-.72,7.7,0,11.09,6.74,17.99,17.58,17.99,6.31,0,12.07-2.42,16.65-7l.07-.07-4.2-5.13-.07-.09-.08.09c-3.87,4.07-7.33,5.73-11.96,5.73-5.17,0-10.7-3.08-10.7-11.72,0-2.71.32-4.94.8-7.46.78-4.24,2.54-10.17,6.44-14.29,3.1-3.2,6.78-4.82,10.95-4.82s7.06,1.55,9.71,5.51l.06.1,5.35-4.52.07-.06-.06-.08c-3.65-5.14-8.1-7.42-14.43-7.42Z"/>
      <polygon class="cls-2" points="397.24 66.78 404.54 66.78 406.36 57.67 399.08 57.67 397.24 66.78"/>
      <polygon class="cls-2" points="326.39 66.78 333.69 66.78 335.5 57.67 328.23 57.67 326.39 66.78"/>
      <polygon class="cls-2" points="306.96 66.78 314.26 66.78 316.07 57.67 308.81 57.67 306.96 66.78"/>
    </g>
    <polygon class="cls-2" points="209.61 85.91 193.22 85.91 198.98 57.67 59.62 57.67 44.98 130.54 100.55 130.54 104.19 112.33 71.38 112.33 73.37 102.31 106.16 102.31 109.47 85.91 76.66 85.91 78.65 75.88 130.64 75.88 119.67 130.54 142.44 130.54 153.42 75.88 172.54 75.88 161.56 130.54 184.34 130.54 189.96 102.31 206.35 102.31 200.73 130.54 223.5 130.54 238.15 57.67 215.37 57.67 209.61 85.91"/>
  </g>
  <rect class="cls-2" x="544.98" y="57.12" width="1.23" height="71.37"/>
</svg>