<?xml version="1.0" encoding="UTF-8"?>
<svg id="Layer_1" data-name="Layer 1" xmlns="http://www.w3.org/2000/svg" xmlns:xlink="http://www.w3.org/1999/xlink" viewBox="0 0 534.36 436.84">
  <defs>
    <style>
      .cls-1 {
        fill: url(#linear-gradient);
      }

      .cls-1, .cls-2, .cls-3 {
        stroke-width: 0px;
      }

      .cls-4 {
        fill: #808e41;
        stroke: #808e41;
        stroke-miterlimit: 10;
        stroke-width: 2px;
      }

      .cls-3 {
        fill: gray;
      }
    </style>
    <linearGradient id="linear-gradient" x1="337.7" y1="291.24" x2="395.37" y2="233.58" gradientUnits="userSpaceOnUse">
      <stop offset="0" stop-color="#f29175"/>
      <stop offset=".14" stop-color="#f29577"/>
      <stop offset="1" stop-color="#f6af86"/>
    </linearGradient>
  </defs>
  <g>
    <g>
      <path class="cls-2" d="m315,123.01c-2.6,12.91-12.57,13.56-14.55,13.56-5.63,0-8.99-3.25-8.99-8.69,0-1.24.18-2.93.5-4.62l6.17-30.73.03-.12h-7.29l-6.29,31.51-.08.45c-.27,1.42-.52,2.77-.52,4.52,0,8.46,5.56,14.15,13.85,14.15,6.06,0,10.93-1.99,14.48-5.92l-.94,5.19-.02.12h7.18l9.92-49.91.02-.12h-7.39l-6.07,30.6Z"/>
      <path class="cls-2" d="m364.66,91.81c-5.63,0-10.62,2.3-13.76,6.34l1.13-5.62.02-.12h-7.18l-9.93,49.9-.02.12h7.29l6.08-30.61c1.55-7.86,7.58-13.55,14.35-13.55,2.91,0,5.19,1.14,6.99,3.49l.07.09,5.92-5.3-.06-.07c-2.73-3.16-6.3-4.68-10.89-4.68Z"/>
      <polygon class="cls-2" points="244.2 98.76 244.18 98.88 269.04 98.88 235.94 136.3 235.92 136.32 234.68 142.44 269.95 142.44 271.21 135.97 244.84 135.97 278.04 98.54 278.05 98.52 279.3 92.41 245.43 92.41 244.2 98.76"/>
      <polygon class="cls-2" points="376.54 142.32 376.52 142.44 383.8 142.44 393.74 92.41 386.58 92.41 376.54 142.32"/>
      <path class="cls-2" d="m475.33,91.81c-5.99,0-10.67,1.83-14.27,5.62l5.65-27.86h-7.29l-14.64,72.87h7.29l6.08-30.61c2.61-12.9,12.66-13.55,14.65-13.55,5.57,0,8.9,3.25,8.9,8.69,0,1.23-.19,2.92-.51,4.63l-6.18,30.85h7.28l6.39-31.52c.31-1.67.51-3.09.51-4.97,0-8.46-5.59-14.15-13.87-14.15Z"/>
      <path class="cls-2" d="m427.02,91.81c-13.22,0-22.5,9.31-25.46,25.54-.53,2.72-.72,5.76-.72,7.7,0,11.09,6.74,17.99,17.58,17.99,6.31,0,12.07-2.42,16.65-7l.07-.07-4.2-5.13-.07-.09-.08.09c-3.87,4.07-7.33,5.73-11.96,5.73-5.17,0-10.7-3.08-10.7-11.72,0-2.71.32-4.94.8-7.46.78-4.24,2.54-10.17,6.44-14.29,3.1-3.2,6.78-4.82,10.95-4.82s7.06,1.55,9.71,5.51l.06.1,5.35-4.52.07-.06-.06-.08c-3.65-5.14-8.1-7.42-14.43-7.42Z"/>
      <polygon class="cls-2" points="389.28 78.69 396.58 78.69 398.4 69.57 391.12 69.57 389.28 78.69"/>
      <polygon class="cls-2" points="318.43 78.69 325.74 78.69 327.54 69.57 320.28 69.57 318.43 78.69"/>
      <polygon class="cls-2" points="299 78.69 306.3 78.69 308.12 69.57 300.85 69.57 299 78.69"/>
    </g>
    <polygon class="cls-2" points="201.65 97.81 185.26 97.81 191.02 69.57 51.66 69.57 37.02 142.45 92.59 142.45 96.23 124.23 63.42 124.23 65.41 114.21 98.2 114.21 101.51 97.81 68.7 97.81 70.69 87.79 122.69 87.79 111.71 142.45 134.48 142.45 145.46 87.79 164.58 87.79 153.6 142.45 176.38 142.45 182 114.21 198.39 114.21 192.77 142.45 215.55 142.45 230.19 69.57 207.41 69.57 201.65 97.81"/>
  </g>
  <rect class="cls-2" x="260.05" y="-49.74" width="1.23" height="450" transform="translate(435.93 -85.41) rotate(90)"/>
  <g>
    <g>
      <path class="cls-3" d="m78.3,305.01h-17.92v-85.5h38.98c13.65,0,23.32,2.3,29,6.9,5.34,4.33,8,11.35,8,21.06,0,10.32-3.06,17.59-9.17,21.81-5.57,3.83-14.62,5.74-27.15,5.74h-21.75v29.99Zm20.82-70.19h-20.82v25.12h21.75c10.87,0,16.3-4.16,16.3-12.47,0-4.33-1.2-7.46-3.6-9.4-2.67-2.17-7.21-3.25-13.63-3.25Z"/>
      <path class="cls-3" d="m218.86,219.51v14.85h-29.52c-6.46,0-11.44,1.69-14.94,5.08-3.5,3.38-5.25,8.36-5.25,14.94h49.71v14.85h-49.71c0,7.58,1.64,12.99,4.93,16.24,3.17,3.13,8.26,4.7,15.26,4.7h29.52v14.85h-30.22c-13.38,0-23.45-3.62-30.22-10.85-6.5-6.96-9.74-17.05-9.74-30.28,0-14.11,2.84-24.77,8.53-31.96,6.53-8.28,17.17-12.41,31.9-12.41h29.76Z"/>
      <path class="cls-3" d="m248.12,305.01h-19.03l35.91-85.5h19.03l36.48,85.5h-19.95l-7.83-20.48h-37.24l-7.37,20.48Zm13.17-35.56h25.58l-12.93-32.71-12.65,32.71Z"/>
    </g>
    <g>
      <path class="cls-1" d="m380.1,218.31v15.04h-11.86c-1.91,0-3.35.41-4.31,1.22s-1.64,2.06-2.03,3.74c-.21.92-.34,3.43-.37,7.54-.03,4.11-.46,7.35-1.29,9.7-.62,1.8-1.49,3.26-2.63,4.36-.86.83-2.27,1.67-4.24,2.52,2.05.95,3.57,1.93,4.56,2.96.99,1.02,1.84,2.58,2.55,4.68.7,2.09,1.05,5.44,1.05,10.02,0,4.13.21,6.82.64,8.07.43,1.25,1.14,2.14,2.13,2.66s12.8.78,15.8.78v14.86h-15.59c-5.96,0-10.2-.65-12.7-1.95-2.51-1.3-4.3-3.2-5.37-5.69-1.07-2.49-1.61-6.23-1.61-11.21,0-1.1.03-2.2.09-3.3.03-.67.05-1.36.05-2.06,0-3.55-.32-6.07-.96-7.57-.64-1.5-1.57-2.58-2.77-3.26-1.21-.67-2.96-1.04-5.25-1.1v-15.73c2.35,0,4.12-.37,5.3-1.1,1.18-.73,2.07-1.86,2.68-3.37.61-1.51.92-4.07.92-7.68v-1.56c-.03-.7-.05-1.41-.05-2.11,0-5.41.45-9.33,1.35-11.74.9-2.42,2.15-4.27,3.74-5.55,1.19-.98,2.81-1.71,4.86-2.2,2.72-.64,5.82-.96,9.31-.96h16Z"/>
      <path class="cls-4" d="m356.78,205.86s2.65-7.94,7.94-10.59c3.97-2.65,11.92,2.65,7.94,6.62-3.97,3.97-15.89,3.97-15.89,3.97h0Z"/>
    </g>
    <g>
      <path class="cls-3" d="m62.7,342.06v7.15c-.13.04-.31.09-.53.15s-.47.08-.73.08c-.98,0-1.46-.41-1.46-1.23v-17.7c0-.35.09-.63.27-.81.18-.19.45-.34.83-.45.64-.2,1.42-.34,2.35-.43.92-.09,1.81-.13,2.68-.13,2.82,0,4.87.59,6.17,1.78,1.3,1.19,1.95,2.79,1.95,4.81s-.67,3.71-2,4.94c-1.33,1.23-3.38,1.85-6.15,1.85h-3.36Zm3.19-2.26c1.77,0,3.15-.37,4.12-1.1.97-.73,1.46-1.86,1.46-3.39s-.47-2.61-1.41-3.31c-.94-.7-2.29-1.05-4.04-1.05-.6,0-1.19.03-1.78.08-.59.06-1.11.13-1.58.22v8.55h3.23Z"/>
      <path class="cls-3" d="m80.37,349.21c-.11.04-.28.09-.5.15s-.46.08-.73.08c-.95,0-1.43-.4-1.43-1.2v-11.28c0-.51.09-.92.28-1.21.19-.3.5-.59.95-.88.58-.38,1.36-.7,2.34-.98.99-.28,2.1-.42,3.34-.42,1.77,0,2.66.44,2.66,1.33,0,.22-.03.43-.1.62s-.16.35-.27.48c-.22-.04-.51-.09-.86-.13-.36-.04-.71-.07-1.06-.07-1.02,0-1.92.11-2.69.32-.78.21-1.42.46-1.93.75v12.44Z"/>
      <path class="cls-3" d="m104.35,341.59c0,1.24-.18,2.36-.53,3.36s-.86,1.85-1.51,2.56c-.65.71-1.45,1.25-2.38,1.63-.93.38-1.97.57-3.13.57s-2.2-.19-3.13-.57-1.73-.92-2.39-1.63c-.67-.71-1.18-1.56-1.53-2.56-.36-1-.53-2.12-.53-3.36s.18-2.36.55-3.36.88-1.85,1.55-2.56c.67-.71,1.46-1.25,2.39-1.63.93-.38,1.96-.57,3.09-.57s2.16.19,3.09.57c.93.38,1.72.92,2.38,1.63.65.71,1.16,1.56,1.53,2.56.37,1,.55,2.12.55,3.36Zm-7.55-5.92c-1.51,0-2.69.52-3.56,1.56-.86,1.04-1.3,2.5-1.3,4.36s.43,3.34,1.28,4.37,2.05,1.55,3.58,1.55,2.72-.52,3.56-1.56c.84-1.04,1.26-2.5,1.26-4.36s-.43-3.31-1.28-4.36c-.85-1.04-2.03-1.56-3.54-1.56Z"/>
      <path class="cls-3" d="m118.75,347.68c-.38.31-.89.58-1.55.8s-1.44.33-2.34.33c-.98,0-1.9-.14-2.76-.42-.86-.28-1.62-.72-2.28-1.33-.65-.61-1.18-1.4-1.56-2.38s-.58-2.16-.58-3.56c0-1.26.19-2.37.57-3.33.38-.95.9-1.75,1.58-2.39.68-.64,1.48-1.12,2.41-1.45.93-.32,1.96-.48,3.09-.48,1.02,0,1.96.13,2.81.38s1.57.57,2.15.95c.33.22.6.47.81.75s.32.62.32,1.01v13.37c0,1.11-.18,2.05-.55,2.81-.37.77-.88,1.39-1.53,1.86-.65.48-1.42.83-2.31,1.05-.89.22-1.84.33-2.86.33-1.13,0-2.09-.12-2.88-.35-.79-.23-1.33-.44-1.61-.62-.67-.38-1-.85-1-1.43,0-.31.07-.57.22-.78s.33-.37.55-.48c.47.35,1.12.68,1.96.98.84.3,1.76.45,2.76.45,1.49,0,2.62-.32,3.41-.95.79-.63,1.18-1.65,1.18-3.04v-2.1Zm-3.59-1.06c.89,0,1.61-.14,2.18-.42.57-.28,1.04-.59,1.41-.95v-8.65c-.38-.24-.85-.46-1.41-.65s-1.24-.28-2.01-.28c-1.51,0-2.71.46-3.61,1.36-.9.91-1.35,2.26-1.35,4.06,0,1,.12,1.85.37,2.54.24.7.58,1.27,1.01,1.71.43.44.94.76,1.53.96.59.2,1.21.3,1.88.3Z"/>
      <path class="cls-3" d="m129,349.21c-.11.04-.28.09-.5.15s-.46.08-.73.08c-.95,0-1.43-.4-1.43-1.2v-11.28c0-.51.09-.92.28-1.21.19-.3.5-.59.95-.88.58-.38,1.36-.7,2.34-.98.99-.28,2.1-.42,3.34-.42,1.77,0,2.66.44,2.66,1.33,0,.22-.03.43-.1.62s-.16.35-.27.48c-.22-.04-.51-.09-.86-.13-.36-.04-.71-.07-1.06-.07-1.02,0-1.92.11-2.69.32-.78.21-1.42.46-1.93.75v12.44Z"/>
      <path class="cls-3" d="m144.33,333.48c1.93,0,3.46.43,4.59,1.3,1.13.86,1.7,2.23,1.7,4.09v7.88c0,.49-.09.86-.28,1.11-.19.26-.47.49-.85.72-.53.31-1.24.58-2.11.81-.88.23-1.88.35-3.01.35-2.08,0-3.7-.41-4.84-1.23-1.14-.82-1.71-2.01-1.71-3.56,0-1.46.48-2.57,1.43-3.31.95-.74,2.29-1.2,4.02-1.38l4.72-.47v-.93c0-1.11-.33-1.92-1-2.43s-1.56-.77-2.69-.77c-.93,0-1.81.13-2.63.4-.82.27-1.55.57-2.2.9-.18-.16-.34-.33-.48-.53-.14-.2-.22-.42-.22-.67,0-.31.08-.57.23-.77.15-.2.4-.39.73-.57.6-.31,1.29-.55,2.06-.71.78-.17,1.62-.25,2.53-.25Zm.03,14.07c.93,0,1.7-.09,2.31-.28.61-.19,1.05-.37,1.31-.55v-4.82l-4.12.43c-1.15.11-2.01.37-2.56.78-.55.41-.83,1.01-.83,1.81,0,.84.32,1.49.96,1.95.64.45,1.62.68,2.93.68Z"/>
      <path class="cls-3" d="m174.03,336.44c-.62-.51-1.45-.77-2.49-.77-1.44,0-2.73.51-3.86,1.53.13.44.2.92.2,1.43v10.58c-.11.04-.28.09-.52.15s-.47.08-.71.08c-.95,0-1.43-.4-1.43-1.2v-9.41c0-1.09-.31-1.88-.93-2.39-.62-.51-1.46-.77-2.53-.77-.71,0-1.38.11-2.01.33s-1.17.48-1.61.76v12.44c-.11.04-.28.09-.5.15s-.46.08-.73.08c-.95,0-1.43-.4-1.43-1.2v-11.34c0-.44.09-.82.28-1.11.19-.3.52-.6.98-.92.6-.38,1.36-.7,2.28-.98.92-.28,1.85-.42,2.78-.42,1.09,0,2.05.16,2.89.48.84.32,1.49.76,1.93,1.31.58-.51,1.3-.94,2.16-1.28.86-.34,1.85-.52,2.96-.52,1.8,0,3.23.43,4.29,1.28s1.6,2.17,1.6,3.94v10.51c-.11.04-.28.09-.52.15-.23.06-.47.08-.72.08-.95,0-1.43-.4-1.43-1.2v-9.41c0-1.09-.31-1.88-.93-2.39Z"/>
      <path class="cls-3" d="m201.17,336.44c-.62-.51-1.45-.77-2.49-.77-1.44,0-2.73.51-3.86,1.53.13.44.2.92.2,1.43v10.58c-.11.04-.28.09-.52.15s-.47.08-.71.08c-.95,0-1.43-.4-1.43-1.2v-9.41c0-1.09-.31-1.88-.93-2.39-.62-.51-1.46-.77-2.53-.77-.71,0-1.38.11-2.01.33s-1.17.48-1.61.76v12.44c-.11.04-.28.09-.5.15s-.46.08-.73.08c-.95,0-1.43-.4-1.43-1.2v-11.34c0-.44.09-.82.28-1.11.19-.3.52-.6.98-.92.6-.38,1.36-.7,2.28-.98.92-.28,1.85-.42,2.78-.42,1.09,0,2.05.16,2.89.48.84.32,1.49.76,1.93,1.31.58-.51,1.3-.94,2.16-1.28.86-.34,1.85-.52,2.96-.52,1.8,0,3.23.43,4.29,1.28s1.6,2.17,1.6,3.94v10.51c-.11.04-.28.09-.52.15-.23.06-.47.08-.72.08-.95,0-1.43-.4-1.43-1.2v-9.41c0-1.09-.31-1.88-.93-2.39Z"/>
      <path class="cls-3" d="m209.52,329.05c0-.46.16-.86.48-1.18.32-.32.74-.48,1.25-.48s.92.16,1.23.48c.31.32.47.72.47,1.18s-.16.86-.47,1.18-.72.48-1.23.48-.93-.16-1.25-.48-.48-.72-.48-1.18Zm3.06,20.16c-.11.04-.28.09-.5.15-.22.06-.47.08-.73.08-.95,0-1.43-.4-1.43-1.2v-14.27c.11-.04.28-.09.52-.15.23-.05.48-.08.75-.08.93,0,1.4.41,1.4,1.23v14.24Z"/>
      <path class="cls-3" d="m227.37,336.54c-.7-.58-1.64-.87-2.81-.87-.89,0-1.67.11-2.36.33-.69.22-1.28.48-1.76.76v12.44c-.11.04-.28.09-.5.15s-.46.08-.73.08c-.95,0-1.43-.4-1.43-1.2v-11.34c0-.47.09-.85.28-1.15.19-.3.52-.59.98-.88.58-.35,1.34-.68,2.29-.96.95-.29,2.03-.43,3.23-.43,2.02,0,3.61.46,4.77,1.36,1.17.91,1.75,2.34,1.75,4.29v10.08c-.11.04-.28.09-.52.15-.23.06-.47.08-.72.08-.95,0-1.43-.4-1.43-1.2v-8.98c0-1.24-.35-2.15-1.05-2.73Z"/>
      <path class="cls-3" d="m246.34,347.68c-.38.31-.89.58-1.55.8s-1.44.33-2.34.33c-.98,0-1.9-.14-2.76-.42-.86-.28-1.62-.72-2.28-1.33-.65-.61-1.18-1.4-1.56-2.38s-.58-2.16-.58-3.56c0-1.26.19-2.37.57-3.33.38-.95.9-1.75,1.58-2.39.68-.64,1.48-1.12,2.41-1.45.93-.32,1.96-.48,3.09-.48,1.02,0,1.96.13,2.81.38s1.57.57,2.15.95c.33.22.6.47.81.75s.32.62.32,1.01v13.37c0,1.11-.18,2.05-.55,2.81-.37.77-.88,1.39-1.53,1.86-.65.48-1.42.83-2.31,1.05-.89.22-1.84.33-2.86.33-1.13,0-2.09-.12-2.88-.35-.79-.23-1.33-.44-1.61-.62-.67-.38-1-.85-1-1.43,0-.31.07-.57.22-.78s.33-.37.55-.48c.47.35,1.12.68,1.96.98.84.3,1.76.45,2.76.45,1.49,0,2.62-.32,3.41-.95.79-.63,1.18-1.65,1.18-3.04v-2.1Zm-3.59-1.06c.89,0,1.61-.14,2.18-.42.57-.28,1.04-.59,1.41-.95v-8.65c-.38-.24-.85-.46-1.41-.65s-1.24-.28-2.01-.28c-1.51,0-2.71.46-3.61,1.36-.9.91-1.35,2.26-1.35,4.06,0,1,.12,1.85.37,2.54.24.7.58,1.27,1.01,1.71.43.44.94.76,1.53.96.59.2,1.21.3,1.88.3Z"/>
      <path class="cls-3" d="m254.03,352.4c-.18.31-.37.54-.57.68-.2.14-.44.22-.73.22-.49,0-.89-.19-1.2-.57.16-.42.32-.91.5-1.48s.36-1.15.55-1.76c.19-.61.35-1.2.5-1.78.14-.58.26-1.1.35-1.56.18-.09.37-.16.58-.22.21-.05.44-.08.68-.08.4,0,.71.09.93.28.22.19.33.5.33.95,0,.38-.07.82-.22,1.33-.14.51-.32,1.03-.52,1.55-.2.52-.41,1-.63,1.45-.22.44-.41.78-.57,1Z"/>
      <path class="cls-3" d="m266.6,348.88c-.27-.27-.4-.62-.4-1.06v-17.3c0-.44.13-.8.4-1.06.27-.27.62-.4,1.06-.4h11.04c.07.11.13.26.2.45.07.19.1.39.1.62,0,.38-.09.68-.27.9s-.43.33-.76.33h-9.08v6.42h8.78c.07.11.13.26.2.45.07.19.1.39.1.62,0,.38-.09.67-.27.88s-.43.32-.76.32h-8.05v6.99h9.98c.07.11.13.25.2.43s.1.39.1.63c0,.38-.09.67-.27.88-.18.21-.43.32-.76.32h-10.48c-.44,0-.8-.13-1.06-.4Z"/>
      <path class="cls-3" d="m295.94,346.75c0,.44-.09.79-.28,1.03-.19.24-.48.49-.88.73-.44.29-1.08.56-1.9.81-.82.25-1.76.38-2.83.38-1.2,0-2.3-.16-3.29-.47-1-.31-1.86-.79-2.58-1.45-.72-.65-1.28-1.49-1.66-2.49-.39-1.01-.58-2.22-.58-3.64s.2-2.68.6-3.71c.4-1.03.94-1.88,1.61-2.54.68-.67,1.47-1.15,2.39-1.46.92-.31,1.9-.47,2.94-.47.71,0,1.4.09,2.06.27.67.18,1.24.4,1.73.67v-6.69c.11-.04.28-.09.51-.15.23-.06.47-.08.72-.08.95,0,1.43.4,1.43,1.2v18.06Zm-2.66-9.95c-.44-.31-.95-.58-1.53-.8-.58-.22-1.24-.33-2-.33-.69,0-1.34.11-1.95.32-.61.21-1.15.55-1.61,1.03s-.84,1.1-1.11,1.88c-.28.78-.42,1.72-.42,2.83,0,2.04.49,3.52,1.46,4.42.97.91,2.27,1.36,3.89,1.36.78,0,1.41-.08,1.91-.25.5-.17.95-.37,1.35-.62v-9.85Z"/>
      <path class="cls-3" d="m300.99,333.98c.11-.04.28-.09.51-.15.23-.05.48-.08.75-.08.93,0,1.4.41,1.4,1.23v8.55c0,1.44.38,2.47,1.13,3.08.75.61,1.8.92,3.13.92.89,0,1.64-.09,2.26-.28.62-.19,1.11-.38,1.46-.58v-12.67c.11-.04.28-.09.52-.15.23-.05.47-.08.71-.08.95,0,1.43.41,1.43,1.23v11.58c0,.47-.06.84-.18,1.11s-.42.55-.88.82c-.51.29-1.21.57-2.11.83-.9.27-1.98.4-3.24.4-2.22,0-3.92-.49-5.11-1.46-1.19-.98-1.78-2.51-1.78-4.59v-9.68Z"/>
      <path class="cls-3" d="m326.4,335.71c-.75,0-1.45.13-2.09.38-.64.25-1.2.63-1.66,1.13-.47.5-.83,1.12-1.1,1.86-.27.74-.4,1.59-.4,2.54,0,1.91.48,3.37,1.43,4.37.95,1.01,2.23,1.51,3.83,1.51.93,0,1.71-.13,2.33-.38.62-.25,1.17-.55,1.66-.88.24.13.44.3.6.5.15.2.23.44.23.73,0,.31-.12.6-.37.86-.24.27-.58.5-1.01.7-.43.2-.94.36-1.53.48-.59.12-1.23.18-1.91.18-1.15,0-2.22-.17-3.19-.5-.98-.33-1.82-.83-2.53-1.5-.71-.67-1.26-1.5-1.66-2.51s-.6-2.2-.6-3.58.21-2.53.63-3.54c.42-1.01.99-1.86,1.7-2.54.71-.69,1.55-1.2,2.51-1.55.96-.34,1.99-.52,3.08-.52.69,0,1.33.06,1.91.18.59.12,1.09.29,1.51.52.42.22.75.47.98.75.23.28.35.56.35.85,0,.27-.08.5-.23.7-.16.2-.35.35-.6.47-.49-.33-1.02-.62-1.6-.87-.58-.24-1.33-.37-2.26-.37Z"/>
      <path class="cls-3" d="m340.77,333.48c1.93,0,3.46.43,4.59,1.3,1.13.86,1.7,2.23,1.7,4.09v7.88c0,.49-.09.86-.28,1.11-.19.26-.47.49-.85.72-.53.31-1.24.58-2.11.81-.88.23-1.88.35-3.01.35-2.08,0-3.7-.41-4.84-1.23-1.14-.82-1.71-2.01-1.71-3.56,0-1.46.48-2.57,1.43-3.31.95-.74,2.29-1.2,4.02-1.38l4.72-.47v-.93c0-1.11-.33-1.92-1-2.43s-1.56-.77-2.69-.77c-.93,0-1.81.13-2.63.4-.82.27-1.55.57-2.2.9-.18-.16-.34-.33-.48-.53-.14-.2-.22-.42-.22-.67,0-.31.08-.57.23-.77.15-.2.4-.39.73-.57.6-.31,1.29-.55,2.06-.71.78-.17,1.62-.25,2.53-.25Zm.03,14.07c.93,0,1.7-.09,2.31-.28.61-.19,1.05-.37,1.31-.55v-4.82l-4.12.43c-1.15.11-2.01.37-2.56.78-.55.41-.83,1.01-.83,1.81,0,.84.32,1.49.96,1.95.64.45,1.62.68,2.93.68Z"/>
      <path class="cls-3" d="m357.17,349.71c-1.55,0-2.81-.34-3.78-1.03-.96-.69-1.45-1.83-1.45-3.43v-15.8c.11-.04.28-.09.52-.15.23-.06.48-.08.75-.08.93,0,1.4.4,1.4,1.2v3.83h5.46c.07.11.13.26.2.45s.1.39.1.62c0,.75-.33,1.13-1,1.13h-4.76v8.65c0,.89.25,1.51.75,1.88.5.37,1.2.55,2.11.55.38,0,.8-.07,1.26-.2.47-.13.85-.29,1.16-.46.13.13.25.3.37.5.11.2.17.43.17.7,0,.49-.29.89-.87,1.2-.58.31-1.38.47-2.39.47Z"/>
      <path class="cls-3" d="m364.06,329.05c0-.46.16-.86.48-1.18.32-.32.74-.48,1.25-.48s.92.16,1.23.48c.31.32.47.72.47,1.18s-.16.86-.47,1.18-.72.48-1.23.48-.93-.16-1.25-.48-.48-.72-.48-1.18Zm3.06,20.16c-.11.04-.28.09-.5.15-.22.06-.47.08-.73.08-.95,0-1.43-.4-1.43-1.2v-14.27c.11-.04.28-.09.52-.15.23-.05.48-.08.75-.08.93,0,1.4.41,1.4,1.23v14.24Z"/>
      <path class="cls-3" d="m386.57,341.59c0,1.24-.18,2.36-.53,3.36s-.86,1.85-1.51,2.56c-.65.71-1.45,1.25-2.38,1.63-.93.38-1.97.57-3.13.57s-2.2-.19-3.13-.57-1.73-.92-2.39-1.63c-.67-.71-1.18-1.56-1.53-2.56-.36-1-.53-2.12-.53-3.36s.18-2.36.55-3.36.88-1.85,1.55-2.56c.67-.71,1.46-1.25,2.39-1.63.93-.38,1.96-.57,3.09-.57s2.16.19,3.09.57c.93.38,1.72.92,2.38,1.63.65.71,1.16,1.56,1.53,2.56.37,1,.55,2.12.55,3.36Zm-7.55-5.92c-1.51,0-2.69.52-3.56,1.56-.86,1.04-1.3,2.5-1.3,4.36s.43,3.34,1.28,4.37,2.05,1.55,3.58,1.55,2.72-.52,3.56-1.56c.84-1.04,1.26-2.5,1.26-4.36s-.43-3.31-1.28-4.36c-.85-1.04-2.03-1.56-3.54-1.56Z"/>
      <path class="cls-3" d="m400.29,336.54c-.7-.58-1.64-.87-2.81-.87-.89,0-1.67.11-2.36.33-.69.22-1.28.48-1.76.76v12.44c-.11.04-.28.09-.5.15s-.46.08-.73.08c-.95,0-1.43-.4-1.43-1.2v-11.34c0-.47.09-.85.28-1.15.19-.3.52-.59.98-.88.58-.35,1.34-.68,2.29-.96.95-.29,2.03-.43,3.23-.43,2.02,0,3.61.46,4.77,1.36,1.17.91,1.75,2.34,1.75,4.29v10.08c-.11.04-.28.09-.52.15-.23.06-.47.08-.72.08-.95,0-1.43-.4-1.43-1.2v-8.98c0-1.24-.35-2.15-1.05-2.73Z"/>
      <path class="cls-3" d="m408.76,352.4c-.18.31-.37.54-.57.68-.2.14-.44.22-.73.22-.49,0-.89-.19-1.2-.57.16-.42.32-.91.5-1.48s.36-1.15.55-1.76c.19-.61.35-1.2.5-1.78.14-.58.26-1.1.35-1.56.18-.09.37-.16.58-.22.21-.05.44-.08.68-.08.4,0,.71.09.93.28.22.19.33.5.33.95,0,.38-.07.82-.22,1.33-.14.51-.32,1.03-.52,1.55-.2.52-.41,1-.63,1.45-.22.44-.41.78-.57,1Z"/>
      <path class="cls-3" d="m425.92,333.48c1.93,0,3.46.43,4.59,1.3,1.13.86,1.7,2.23,1.7,4.09v7.88c0,.49-.09.86-.28,1.11-.19.26-.47.49-.85.72-.53.31-1.24.58-2.11.81-.88.23-1.88.35-3.01.35-2.08,0-3.7-.41-4.84-1.23-1.14-.82-1.71-2.01-1.71-3.56,0-1.46.48-2.57,1.43-3.31.95-.74,2.29-1.2,4.02-1.38l4.72-.47v-.93c0-1.11-.33-1.92-1-2.43s-1.56-.77-2.69-.77c-.93,0-1.81.13-2.63.4-.82.27-1.55.57-2.2.9-.18-.16-.34-.33-.48-.53-.14-.2-.22-.42-.22-.67,0-.31.08-.57.23-.77.15-.2.4-.39.73-.57.6-.31,1.29-.55,2.06-.71.78-.17,1.62-.25,2.53-.25Zm.03,14.07c.93,0,1.7-.09,2.31-.28.61-.19,1.05-.37,1.31-.55v-4.82l-4.12.43c-1.15.11-2.01.37-2.56.78-.55.41-.83,1.01-.83,1.81,0,.84.32,1.49.96,1.95.64.45,1.62.68,2.93.68Z"/>
      <path class="cls-3" d="m446.66,336.54c-.7-.58-1.64-.87-2.81-.87-.89,0-1.67.11-2.36.33-.69.22-1.28.48-1.76.76v12.44c-.11.04-.28.09-.5.15s-.46.08-.73.08c-.95,0-1.43-.4-1.43-1.2v-11.34c0-.47.09-.85.28-1.15.19-.3.52-.59.98-.88.58-.35,1.34-.68,2.29-.96.95-.29,2.03-.43,3.23-.43,2.02,0,3.61.46,4.77,1.36,1.17.91,1.75,2.34,1.75,4.29v10.08c-.11.04-.28.09-.52.15-.23.06-.47.08-.72.08-.95,0-1.43-.4-1.43-1.2v-8.98c0-1.24-.35-2.15-1.05-2.73Z"/>
      <path class="cls-3" d="m468.5,346.75c0,.44-.09.79-.28,1.03-.19.24-.48.49-.88.73-.44.29-1.08.56-1.9.81-.82.25-1.76.38-2.83.38-1.2,0-2.3-.16-3.29-.47-1-.31-1.86-.79-2.58-1.45-.72-.65-1.28-1.49-1.66-2.49-.39-1.01-.58-2.22-.58-3.64s.2-2.68.6-3.71c.4-1.03.94-1.88,1.61-2.54.68-.67,1.47-1.15,2.39-1.46.92-.31,1.9-.47,2.94-.47.71,0,1.4.09,2.06.27.67.18,1.24.4,1.73.67v-6.69c.11-.04.28-.09.51-.15.23-.06.47-.08.72-.08.95,0,1.43.4,1.43,1.2v18.06Zm-2.66-9.95c-.44-.31-.95-.58-1.53-.8-.58-.22-1.24-.33-2-.33-.69,0-1.34.11-1.95.32-.61.21-1.15.55-1.61,1.03s-.84,1.1-1.11,1.88c-.28.78-.42,1.72-.42,2.83,0,2.04.49,3.52,1.46,4.42.97.91,2.27,1.36,3.89,1.36.78,0,1.41-.08,1.91-.25.5-.17.95-.37,1.35-.62v-9.85Z"/>
      <path class="cls-3" d="m74.75,369.3c0,.31-.09.58-.28.8-.19.22-.41.39-.65.5-.58-.4-1.25-.78-2.03-1.13-.78-.35-1.79-.53-3.03-.53-1.02,0-1.96.18-2.83.53-.86.35-1.62.88-2.26,1.56-.64.69-1.15,1.55-1.51,2.59-.37,1.04-.55,2.24-.55,3.59s.18,2.57.53,3.59c.35,1.02.85,1.87,1.48,2.56s1.39,1.2,2.28,1.55,1.87.52,2.96.52c1.15,0,2.16-.16,3.01-.48s1.57-.7,2.15-1.15c.22.09.43.25.63.48.2.23.3.5.3.81,0,.47-.27.89-.8,1.26-.51.36-1.21.67-2.1.95s-2.02.42-3.39.42-2.69-.22-3.89-.67-2.23-1.1-3.11-1.98-1.57-1.97-2.08-3.28c-.51-1.31-.77-2.84-.77-4.59s.26-3.29.78-4.61c.52-1.32,1.22-2.42,2.11-3.31.89-.89,1.92-1.55,3.11-2s2.43-.67,3.74-.67c.91,0,1.75.08,2.51.23.77.16,1.42.36,1.96.62.54.25.96.54,1.26.87.3.32.45.64.45.95Z"/>
      <path class="cls-3" d="m92.51,379.61c0,1.24-.18,2.36-.53,3.36s-.86,1.85-1.51,2.56c-.65.71-1.45,1.25-2.38,1.63-.93.38-1.97.57-3.13.57s-2.2-.19-3.13-.57-1.73-.92-2.39-1.63c-.67-.71-1.18-1.56-1.53-2.56-.36-1-.53-2.12-.53-3.36s.18-2.36.55-3.36.88-1.85,1.55-2.56c.67-.71,1.46-1.25,2.39-1.63.93-.38,1.96-.57,3.09-.57s2.16.19,3.09.57c.93.38,1.72.92,2.38,1.63.65.71,1.16,1.56,1.53,2.56.37,1,.55,2.12.55,3.36Zm-7.55-5.92c-1.51,0-2.69.52-3.56,1.56-.86,1.04-1.3,2.5-1.3,4.36s.43,3.34,1.28,4.37,2.05,1.55,3.58,1.55,2.72-.52,3.56-1.56c.84-1.04,1.26-2.5,1.26-4.36s-.43-3.31-1.28-4.36c-.85-1.04-2.03-1.56-3.54-1.56Z"/>
      <path class="cls-3" d="m115.19,374.45c-.62-.51-1.45-.77-2.49-.77-1.44,0-2.73.51-3.86,1.53.13.44.2.92.2,1.43v10.58c-.11.04-.28.09-.52.15s-.47.08-.71.08c-.95,0-1.43-.4-1.43-1.2v-9.41c0-1.09-.31-1.88-.93-2.39-.62-.51-1.46-.77-2.53-.77-.71,0-1.38.11-2.01.33s-1.17.48-1.61.76v12.44c-.11.04-.28.09-.5.15s-.46.08-.73.08c-.95,0-1.43-.4-1.43-1.2v-11.34c0-.44.09-.82.28-1.11.19-.3.52-.6.98-.92.6-.38,1.36-.7,2.28-.98.92-.28,1.85-.42,2.78-.42,1.09,0,2.05.16,2.89.48.84.32,1.49.76,1.93,1.31.58-.51,1.3-.94,2.16-1.28.86-.34,1.85-.52,2.96-.52,1.8,0,3.23.43,4.29,1.28s1.6,2.17,1.6,3.94v10.51c-.11.04-.28.09-.52.15-.23.06-.47.08-.72.08-.95,0-1.43-.4-1.43-1.2v-9.41c0-1.09-.31-1.88-.93-2.39Z"/>
      <path class="cls-3" d="m130.33,387.72c-.78,0-1.51-.09-2.2-.27-.69-.18-1.25-.39-1.7-.63v6.45c-.11.04-.28.09-.5.15s-.46.08-.73.08c-.95,0-1.43-.41-1.43-1.23v-17.56c0-.44.08-.8.23-1.06.16-.27.48-.54.96-.83.6-.33,1.31-.64,2.15-.92.83-.28,1.78-.42,2.84-.42s2.11.16,3.08.47c.96.31,1.8.79,2.5,1.45s1.25,1.49,1.66,2.51c.41,1.02.62,2.24.62,3.66s-.18,2.57-.55,3.59c-.37,1.02-.88,1.87-1.55,2.54-.67.68-1.46,1.18-2.38,1.51-.92.33-1.92.5-3.01.5Zm-.37-2.2c1.55,0,2.8-.47,3.74-1.41.94-.94,1.41-2.46,1.41-4.54,0-1.09-.14-2.01-.42-2.76s-.65-1.36-1.13-1.83-1.03-.8-1.65-1-1.28-.3-1.96-.3c-.8,0-1.48.1-2.03.3-.55.2-1.05.42-1.5.67v9.81c.42.31.92.57,1.5.76.58.2,1.25.3,2.03.3Z"/>
      <path class="cls-3" d="m141.93,371.99c.11-.04.28-.09.51-.15.23-.05.48-.08.75-.08.93,0,1.4.41,1.4,1.23v8.55c0,1.44.38,2.47,1.13,3.08.75.61,1.8.92,3.13.92.89,0,1.64-.09,2.26-.28.62-.19,1.11-.38,1.46-.58v-12.67c.11-.04.28-.09.52-.15.23-.05.47-.08.71-.08.95,0,1.43.41,1.43,1.23v11.58c0,.47-.06.84-.18,1.11s-.42.55-.88.82c-.51.29-1.21.57-2.11.83-.9.27-1.98.4-3.24.4-2.22,0-3.92-.49-5.11-1.46-1.19-.98-1.78-2.51-1.78-4.59v-9.68Z"/>
      <path class="cls-3" d="m165.48,387.72c-1.55,0-2.81-.34-3.78-1.03-.96-.69-1.45-1.83-1.45-3.43v-15.8c.11-.04.28-.09.52-.15.23-.06.48-.08.75-.08.93,0,1.4.4,1.4,1.2v3.83h5.46c.07.11.13.26.2.45s.1.39.1.62c0,.75-.33,1.13-1,1.13h-4.76v8.65c0,.89.25,1.51.75,1.88.5.37,1.2.55,2.11.55.38,0,.8-.07,1.26-.2.47-.13.85-.29,1.16-.46.13.13.25.3.37.5.11.2.17.43.17.7,0,.49-.29.89-.87,1.2-.58.31-1.38.47-2.39.47Z"/>
      <path class="cls-3" d="m174,381.17c.6,2.91,2.51,4.36,5.72,4.36.93,0,1.77-.16,2.53-.47s1.35-.64,1.8-1c.53.31.8.73.8,1.26,0,.31-.14.61-.42.9s-.65.54-1.13.76c-.48.22-1.03.4-1.66.53-.63.13-1.31.2-2.05.2-2.57,0-4.61-.7-6.1-2.1s-2.25-3.44-2.25-6.12c0-1.26.18-2.39.55-3.38s.88-1.82,1.53-2.51c.65-.69,1.44-1.21,2.34-1.58.91-.37,1.9-.55,2.96-.55,1,0,1.92.17,2.76.5.84.33,1.57.8,2.18,1.41.61.61,1.09,1.33,1.43,2.16.34.83.52,1.75.52,2.74,0,.49-.11.84-.33,1.05s-.53.34-.93.38l-10.25,1.43Zm4.59-7.52c-1.35,0-2.47.47-3.36,1.41s-1.35,2.29-1.4,4.04l9.15-1.26c-.11-1.22-.54-2.22-1.28-3.01-.74-.79-1.78-1.18-3.11-1.18Z"/>
      <path class="cls-3" d="m192.03,387.22c-.11.04-.28.09-.5.15s-.46.08-.73.08c-.95,0-1.43-.4-1.43-1.2v-11.28c0-.51.09-.92.28-1.21.19-.3.5-.59.95-.88.58-.38,1.36-.7,2.34-.98.99-.28,2.1-.42,3.34-.42,1.77,0,2.66.44,2.66,1.33,0,.22-.03.43-.1.62s-.16.35-.27.48c-.22-.04-.51-.09-.86-.13-.36-.04-.71-.07-1.06-.07-1.02,0-1.92.11-2.69.32-.78.21-1.42.46-1.93.75v12.44Z"/>
      <path class="cls-3" d="m201.11,379.71c-.07-.15-.12-.32-.17-.48-.04-.17-.07-.36-.07-.58,0-.75.39-1.13,1.16-1.13h7.95c.04.13.09.29.15.47.05.18.08.37.08.57,0,.78-.39,1.16-1.16,1.16h-7.95Z"/>
      <path class="cls-3" d="m230.28,387.37c-.22.06-.47.08-.73.08-.98,0-1.46-.41-1.46-1.23v-8.05h-10.38v9.05c-.13.04-.31.09-.53.15s-.47.08-.73.08c-.98,0-1.46-.41-1.46-1.23v-19.09c.11-.04.28-.09.52-.15.23-.05.48-.08.75-.08.98,0,1.46.41,1.46,1.23v7.78h10.38v-8.78c.11-.04.28-.09.52-.15.23-.05.48-.08.75-.08.98,0,1.46.41,1.46,1.23v19.09c-.13.04-.31.09-.53.15Z"/>
      <path class="cls-3" d="m236.26,371.99c.11-.04.28-.09.51-.15.23-.05.48-.08.75-.08.93,0,1.4.41,1.4,1.23v8.55c0,1.44.38,2.47,1.13,3.08.75.61,1.8.92,3.13.92.89,0,1.64-.09,2.26-.28.62-.19,1.11-.38,1.46-.58v-12.67c.11-.04.28-.09.52-.15.23-.05.47-.08.71-.08.95,0,1.43.41,1.43,1.23v11.58c0,.47-.06.84-.18,1.11s-.42.55-.88.82c-.51.29-1.21.57-2.11.83-.9.27-1.98.4-3.24.4-2.22,0-3.92-.49-5.11-1.46-1.19-.98-1.78-2.51-1.78-4.59v-9.68Z"/>
      <path class="cls-3" d="m273.12,374.45c-.62-.51-1.45-.77-2.49-.77-1.44,0-2.73.51-3.86,1.53.13.44.2.92.2,1.43v10.58c-.11.04-.28.09-.52.15s-.47.08-.71.08c-.95,0-1.43-.4-1.43-1.2v-9.41c0-1.09-.31-1.88-.93-2.39-.62-.51-1.46-.77-2.53-.77-.71,0-1.38.11-2.01.33s-1.17.48-1.61.76v12.44c-.11.04-.28.09-.5.15s-.46.08-.73.08c-.95,0-1.43-.4-1.43-1.2v-11.34c0-.44.09-.82.28-1.11.19-.3.52-.6.98-.92.6-.38,1.36-.7,2.28-.98.92-.28,1.85-.42,2.78-.42,1.09,0,2.05.16,2.89.48.84.32,1.49.76,1.93,1.31.58-.51,1.3-.94,2.16-1.28.86-.34,1.85-.52,2.96-.52,1.8,0,3.23.43,4.29,1.28s1.6,2.17,1.6,3.94v10.51c-.11.04-.28.09-.52.15-.23.06-.47.08-.72.08-.95,0-1.43-.4-1.43-1.2v-9.41c0-1.09-.31-1.88-.93-2.39Z"/>
      <path class="cls-3" d="m287.15,371.49c1.93,0,3.46.43,4.59,1.3,1.13.86,1.7,2.23,1.7,4.09v7.88c0,.49-.09.86-.28,1.11-.19.26-.47.49-.85.72-.53.31-1.24.58-2.11.81-.88.23-1.88.35-3.01.35-2.08,0-3.7-.41-4.84-1.23-1.14-.82-1.71-2.01-1.71-3.56,0-1.46.48-2.57,1.43-3.31.95-.74,2.29-1.2,4.02-1.38l4.72-.47v-.93c0-1.11-.33-1.92-1-2.43s-1.56-.77-2.69-.77c-.93,0-1.81.13-2.63.4-.82.27-1.55.57-2.2.9-.18-.16-.34-.33-.48-.53-.14-.2-.22-.42-.22-.67,0-.31.08-.57.23-.77.15-.2.4-.39.73-.57.6-.31,1.29-.55,2.06-.71.78-.17,1.62-.25,2.53-.25Zm.03,14.07c.93,0,1.7-.09,2.31-.28.61-.19,1.05-.37,1.31-.55v-4.82l-4.12.43c-1.15.11-2.01.37-2.56.78-.55.41-.83,1.01-.83,1.81,0,.84.32,1.49.96,1.95.64.45,1.62.68,2.93.68Z"/>
      <path class="cls-3" d="m307.89,374.55c-.7-.58-1.64-.87-2.81-.87-.89,0-1.67.11-2.36.33-.69.22-1.28.48-1.76.76v12.44c-.11.04-.28.09-.5.15s-.46.08-.73.08c-.95,0-1.43-.4-1.43-1.2v-11.34c0-.47.09-.85.28-1.15.19-.3.52-.59.98-.88.58-.35,1.34-.68,2.29-.96.95-.29,2.03-.43,3.23-.43,2.02,0,3.61.46,4.77,1.36,1.17.91,1.75,2.34,1.75,4.29v10.08c-.11.04-.28.09-.52.15-.23.06-.47.08-.72.08-.95,0-1.43-.4-1.43-1.2v-8.98c0-1.24-.35-2.15-1.05-2.73Z"/>
      <path class="cls-3" d="m325.94,387.37c-.22.06-.46.08-.73.08-.98,0-1.46-.41-1.46-1.23v-19.09c.11-.04.28-.09.52-.15.23-.05.48-.08.75-.08.95,0,1.43.41,1.43,1.23v19.09c-.11.04-.28.09-.5.15Z"/>
      <path class="cls-3" d="m341.55,374.55c-.7-.58-1.64-.87-2.81-.87-.89,0-1.67.11-2.36.33-.69.22-1.28.48-1.76.76v12.44c-.11.04-.28.09-.5.15s-.46.08-.73.08c-.95,0-1.43-.4-1.43-1.2v-11.34c0-.47.09-.85.28-1.15.19-.3.52-.59.98-.88.58-.35,1.34-.68,2.29-.96.95-.29,2.03-.43,3.23-.43,2.02,0,3.61.46,4.77,1.36,1.17.91,1.75,2.34,1.75,4.29v10.08c-.11.04-.28.09-.52.15-.23.06-.47.08-.72.08-.95,0-1.43-.4-1.43-1.2v-8.98c0-1.24-.35-2.15-1.05-2.73Z"/>
      <path class="cls-3" d="m355.51,387.72c-1.55,0-2.81-.34-3.78-1.03-.96-.69-1.45-1.83-1.45-3.43v-15.8c.11-.04.28-.09.52-.15.23-.06.48-.08.75-.08.93,0,1.4.4,1.4,1.2v3.83h5.46c.07.11.13.26.2.45s.1.39.1.62c0,.75-.33,1.13-1,1.13h-4.76v8.65c0,.89.25,1.51.75,1.88.5.37,1.2.55,2.11.55.38,0,.8-.07,1.26-.2.47-.13.85-.29,1.16-.46.13.13.25.3.37.5.11.2.17.43.17.7,0,.49-.29.89-.87,1.2-.58.31-1.38.47-2.39.47Z"/>
      <path class="cls-3" d="m364.02,381.17c.6,2.91,2.51,4.36,5.72,4.36.93,0,1.77-.16,2.53-.47s1.35-.64,1.8-1c.53.31.8.73.8,1.26,0,.31-.14.61-.42.9s-.65.54-1.13.76c-.48.22-1.03.4-1.66.53-.63.13-1.31.2-2.05.2-2.57,0-4.61-.7-6.1-2.1s-2.25-3.44-2.25-6.12c0-1.26.18-2.39.55-3.38s.88-1.82,1.53-2.51c.65-.69,1.44-1.21,2.34-1.58.91-.37,1.9-.55,2.96-.55,1,0,1.92.17,2.76.5.84.33,1.57.8,2.18,1.41.61.61,1.09,1.33,1.43,2.16.34.83.52,1.75.52,2.74,0,.49-.11.84-.33,1.05s-.53.34-.93.38l-10.25,1.43Zm4.59-7.52c-1.35,0-2.47.47-3.36,1.41s-1.35,2.29-1.4,4.04l9.15-1.26c-.11-1.22-.54-2.22-1.28-3.01-.74-.79-1.78-1.18-3.11-1.18Z"/>
      <path class="cls-3" d="m382.05,387.22c-.11.04-.28.09-.5.15s-.46.08-.73.08c-.95,0-1.43-.4-1.43-1.2v-11.28c0-.51.09-.92.28-1.21.19-.3.5-.59.95-.88.58-.38,1.36-.7,2.34-.98.99-.28,2.1-.42,3.34-.42,1.77,0,2.66.44,2.66,1.33,0,.22-.03.43-.1.62s-.16.35-.27.48c-.22-.04-.51-.09-.86-.13-.36-.04-.71-.07-1.06-.07-1.02,0-1.92.11-2.69.32-.78.21-1.42.46-1.93.75v12.44Z"/>
      <path class="cls-3" d="m397.38,371.49c1.93,0,3.46.43,4.59,1.3,1.13.86,1.7,2.23,1.7,4.09v7.88c0,.49-.09.86-.28,1.11-.19.26-.47.49-.85.72-.53.31-1.24.58-2.11.81-.88.23-1.88.35-3.01.35-2.08,0-3.7-.41-4.84-1.23-1.14-.82-1.71-2.01-1.71-3.56,0-1.46.48-2.57,1.43-3.31.95-.74,2.29-1.2,4.02-1.38l4.72-.47v-.93c0-1.11-.33-1.92-1-2.43s-1.56-.77-2.69-.77c-.93,0-1.81.13-2.63.4-.82.27-1.55.57-2.2.9-.18-.16-.34-.33-.48-.53-.14-.2-.22-.42-.22-.67,0-.31.08-.57.23-.77.15-.2.4-.39.73-.57.6-.31,1.29-.55,2.06-.71.78-.17,1.62-.25,2.53-.25Zm.03,14.07c.93,0,1.7-.09,2.31-.28.61-.19,1.05-.37,1.31-.55v-4.82l-4.12.43c-1.15.11-2.01.37-2.56.78-.55.41-.83,1.01-.83,1.81,0,.84.32,1.49.96,1.95.64.45,1.62.68,2.93.68Z"/>
      <path class="cls-3" d="m415.64,373.72c-.75,0-1.45.13-2.09.38-.64.25-1.2.63-1.66,1.13-.47.5-.83,1.12-1.1,1.86-.27.74-.4,1.59-.4,2.54,0,1.91.48,3.37,1.43,4.37.95,1.01,2.23,1.51,3.83,1.51.93,0,1.71-.13,2.33-.38.62-.25,1.17-.55,1.66-.88.24.13.44.3.6.5.15.2.23.44.23.73,0,.31-.12.6-.37.86-.24.27-.58.5-1.01.7-.43.2-.94.36-1.53.48-.59.12-1.23.18-1.91.18-1.15,0-2.22-.17-3.19-.5-.98-.33-1.82-.83-2.53-1.5-.71-.67-1.26-1.5-1.66-2.51s-.6-2.2-.6-3.58.21-2.53.63-3.54c.42-1.01.99-1.86,1.7-2.54.71-.69,1.55-1.2,2.51-1.55.96-.34,1.99-.52,3.08-.52.69,0,1.33.06,1.91.18.59.12,1.09.29,1.51.52.42.22.75.47.98.75.23.28.35.56.35.85,0,.27-.08.5-.23.7-.16.2-.35.35-.6.47-.49-.33-1.02-.62-1.6-.87-.58-.24-1.33-.37-2.26-.37Z"/>
      <path class="cls-3" d="m429.68,387.72c-1.55,0-2.81-.34-3.78-1.03-.96-.69-1.45-1.83-1.45-3.43v-15.8c.11-.04.28-.09.52-.15.23-.06.48-.08.75-.08.93,0,1.4.4,1.4,1.2v3.83h5.46c.07.11.13.26.2.45s.1.39.1.62c0,.75-.33,1.13-1,1.13h-4.76v8.65c0,.89.25,1.51.75,1.88.5.37,1.2.55,2.11.55.38,0,.8-.07,1.26-.2.47-.13.85-.29,1.16-.46.13.13.25.3.37.5.11.2.17.43.17.7,0,.49-.29.89-.87,1.2-.58.31-1.38.47-2.39.47Z"/>
      <path class="cls-3" d="m436.57,367.07c0-.46.16-.86.48-1.18.32-.32.74-.48,1.25-.48s.92.16,1.23.48c.31.32.47.72.47,1.18s-.16.86-.47,1.18-.72.48-1.23.48-.93-.16-1.25-.48-.48-.72-.48-1.18Zm3.06,20.16c-.11.04-.28.09-.5.15-.22.06-.47.08-.73.08-.95,0-1.43-.4-1.43-1.2v-14.27c.11-.04.28-.09.52-.15.23-.05.48-.08.75-.08.93,0,1.4.41,1.4,1.23v14.24Z"/>
      <path class="cls-3" d="m459.08,379.61c0,1.24-.18,2.36-.53,3.36s-.86,1.85-1.51,2.56c-.65.71-1.45,1.25-2.38,1.63-.93.38-1.97.57-3.13.57s-2.2-.19-3.13-.57-1.73-.92-2.39-1.63c-.67-.71-1.18-1.56-1.53-2.56-.36-1-.53-2.12-.53-3.36s.18-2.36.55-3.36.88-1.85,1.55-2.56c.67-.71,1.46-1.25,2.39-1.63.93-.38,1.96-.57,3.09-.57s2.16.19,3.09.57c.93.38,1.72.92,2.38,1.63.65.71,1.16,1.56,1.53,2.56.37,1,.55,2.12.55,3.36Zm-7.55-5.92c-1.51,0-2.69.52-3.56,1.56-.86,1.04-1.3,2.5-1.3,4.36s.43,3.34,1.28,4.37,2.05,1.55,3.58,1.55,2.72-.52,3.56-1.56c.84-1.04,1.26-2.5,1.26-4.36s-.43-3.31-1.28-4.36c-.85-1.04-2.03-1.56-3.54-1.56Z"/>
      <path class="cls-3" d="m472.8,374.55c-.7-.58-1.64-.87-2.81-.87-.89,0-1.67.11-2.36.33-.69.22-1.28.48-1.76.76v12.44c-.11.04-.28.09-.5.15s-.46.08-.73.08c-.95,0-1.43-.4-1.43-1.2v-11.34c0-.47.09-.85.28-1.15.19-.3.52-.59.98-.88.58-.35,1.34-.68,2.29-.96.95-.29,2.03-.43,3.23-.43,2.02,0,3.61.46,4.77,1.36,1.17.91,1.75,2.34,1.75,4.29v10.08c-.11.04-.28.09-.52.15-.23.06-.47.08-.72.08-.95,0-1.43-.4-1.43-1.2v-8.98c0-1.24-.35-2.15-1.05-2.73Z"/>
    </g>
    <path class="cls-3" d="m401.55,305.01v-85.5h17.92v34.63h32.95v-34.63h17.87v85.5h-17.87v-35.79h-32.95v35.79h-17.92Z"/>
  </g>
</svg>